<svg xmlns="http://www.w3.org/2000/svg" width="1326" height="530"><defs><clipPath id="b"><rect rx="0" ry="0" width="9999" height="400" fill="none" stroke-width="0"/></clipPath><clipPath id="a"><path fill="none" d="M0 0h1226v446H0z"/></clipPath></defs><rect rx="5" ry="5" y="-21" width="1326" height="541" fill="none"/><g class="highcharts-grid" fill="none" stroke="silver"><path d="M75 321.5h1226M75 162.5h1226M75 69.5h1226M75 480.5h1226M75 228.5h1226M75 111.5h1226M75 34.5h1226"/></g><g class="highcharts-axis" fill="none" stroke="#c0d0e0"><path d="M474.5 480v5M675.5 480v5M872.5 480v5M1075.5 480v5M1276.5 480v5M271.5 480v5M371.5 480v5M574.5 480v5M772.5 480v5M973.5 480v5M1175.5 480v5M170.5 480v5M75 480.5h1226"/></g><text x="30" y="280" transform="rotate(-90 13.5 267.5)" color="#6d869f" font-weight="700" font-size="17" font-family="'Lucida Grande','Lucida Sans Unicode',Verdana,Arial,Helvetica,sans-serif" text-anchor="middle" fill="#6d869f" class="highcharts-axis"><tspan x="88">MB</tspan></text><g class="highcharts-series-group highcharts-series" transform="translate(75 34)" clip-path="url(#a)"><path d="M12.02 348.9l1.647 4.6 1.647 22.8 1.648-2.2 1.647 6.5 1.647 2.9 1.648-53.6 1.647 2.5 1.648 40.7 1.647-54.6 1.647 36.8 1.648 16.2 1.647-36.4 1.647-24.9 1.648 27.3 1.647-7 1.647 8 1.648-4.2 1.647 8.2L43.32 328l1.647-2.6 1.647 4.8 1.648-1.6 1.647 7 1.647 5.1 1.648-2.5 1.647-1.3 1.648-6 1.647-.3 1.647-.6 1.648-3.3 1.647-1.7 1.647-2.3 1.648-3.4 1.647-1.9 1.647-4.9 1.648-1.5 1.647-1.9 1.648-2.4 1.647 1.9 1.647-1 1.648-3.9 1.647-.8 1.647-.9 1.648-2.7 1.647-.7 1.647-.7 1.648-1.4 1.647-4.7 1.648-1.4 1.647-.7 1.647-.8 1.648-3.1 1.647-2.3 1.647-5.6 1.648-7.7 1.647-4 1.648-1.6 1.647-.8 1.647.3 1.648.7 1.647-1.4 1.647-1.8 1.648-1.2 1.647-2.3 1.647-.8 1.648.4 1.647 1.5 1.648.5 1.647-1.3 1.647-1.1 1.648.4 1.647-1.3 1.647-.1 1.648 2.9 1.647.4 1.647-2.2 1.648-1 1.647 1.3 1.648.5 1.647 1.2 1.647-.3 1.648 2.1 1.647.8 1.647 3.3 1.648 7 1.647 3.4 1.648 2.4 1.647 1 1.647-.6 1.648-1.9 1.647-.6 1.647.5 1.648.1 1.647 2.2 1.647 5 1.648-.3 1.647-1.7 1.648-3.9 1.647-1.3 1.647.2 1.648 1 1.647 2.2 1.647 1.9 1.648-3.9 1.647-1.3 1.647.1 1.648-.9 1.647 2.1 1.648 1.1 1.647-1.3 1.647-.5 1.648-1.4 1.647-.2 1.647.3 1.648-1.1 1.647-.5 1.648-2.8 1.647-.4 1.647-.2 1.648 1 1.647.8 1.647 1.9 1.648 2.4 1.647-2.2 1.647-3.1 1.648-1.6 1.647-.8 1.648 2.6 1.647 1.5 1.647-.2 1.648-.7 1.647-1.8 1.647-2.1 1.648.8 1.647-1.6 1.647 2.2 1.648 1.7 1.647-1.3 1.648-3.9 1.647-.9 1.647-1.9 1.648.6 1.647.1 1.647.3 1.648.1 1.647-.8 1.648 2.3 1.647-1.5 1.647-.8 1.648 1.4 1.647 1.1 1.647-2.4 1.648-1.3 1.647-.1 1.647-.2 1.648.9 1.647 1.9 1.648 1.4 1.647-.2 1.647-.1 1.648-.3 1.647-.3 1.647 1.8 1.648 2.6 1.647 3.5 1.647-.5 1.648 1 1.647.7 1.648 3.1 1.647 1.8 1.647 4.1 1.648 1.7 1.647-3.2 1.647-4.8 1.648-3.1 1.647-2 1.648-.2 1.647 3.1 1.647 1.5 1.648-1.8 1.647-2.3 1.647-.7 1.648-.6 1.647.3 1.647 1.5 1.648.5 1.647-1.4 1.648-3.9 1.647-1.4 1.647-.6 1.648-.3 1.647 1.3 1.647-.1 1.648-2.5 1.647-3.5 1.647-1.8 1.648-1.9 1.647-1.3 1.648-.6 1.647-.3 1.647-2.9 1.648-1.9 1.647 2.6 1.647 2.1 1.648 1 1.647 2.7 1.648.5 1.647-2.7 1.647-3.2 1.648-1.6 1.647.1 1.647.9 1.648 1.1 1.647 1.4 1.647-1.3 1.648-1 1.647-1.7 1.648.2 1.647-.4 1.647-2.6 1.648.6 1.647-.7 1.647-.1 1.648-.5 1.647.5 1.647.7 1.648 1.2 1.647 1.2 1.648-1.6 1.647-1.8 1.647.3 1.648.9 1.647-.1 1.647 1.8 1.648 2.5 1.647-1.7 1.648-2.6 1.647.2 1.647 2.6 1.648 1.6 1.647 1 1.647.5 1.648-1.8 1.647-4.2 1.647-3.9 1.648.5 1.647 1.9 1.648 2.8 1.647.4 1.647.4 1.648-2.9 1.647-.3 1.647-1.1 1.648.5 1.647 1.6 1.647.9 1.648-1.4 1.647-2.2 1.648-.3 1.647-1.2 1.647-.7 1.648-2.6 1.647-2.8 1.647-3.1 1.648-3.6 1.647-1.8 1.648-.1 1.647-1 1.647-2.2 1.648.4 1.647-1.4 1.647-2 1.648-2.2 1.647.9 1.647 2.2 1.648-.6 1.647-1.4 1.648-3 1.647-3h1.647l1.648.7 1.647-2 1.647.1 1.648-1.5 1.647-3.1 1.647-3.2 1.648-.2 1.647-1.2 1.648.5 1.647.5 1.647-.7 1.648-.2 1.647-.5 1.647-.8 1.648.3 1.647 1.4 1.648.9h3.294l1.648-1.7 1.647-.7 1.647-1.1 1.648-.5 1.647.5 1.647-1.4 1.648-1.6 1.647-1.6 1.648-2 1.647-1.3 1.647-1.3 1.648.1 1.647-.1 1.647-2.7 1.648-.7 1.647-.8 1.647-.4 1.648-2.9 1.647 1.1 1.648-1 1.647-.9 1.647-1.6 1.648-1 1.647-.5 1.647.5 1.648-.2 1.647-1.4 1.648-3.5 1.647-2.4 1.647-3.3 1.648-1.5 1.647-.9 1.647.5 1.648.1 1.647-1.7 1.647-.6h1.648l1.647.1 1.648 1.3 1.647 2.1 1.647.2 1.648-2.9 1.647-2.7 1.647-2 1.648-2.6 1.647-1.1 1.647-.9 1.648 1.4 1.647-3 1.648-.8 1.647-.3 1.647 3 1.648 1.9 1.647 1.6 1.647 1 1.648.5 1.647.1 1.648 2.6 1.647 4.6 1.647 4.8 1.648 1.9 1.647 1.2 1.647.1 1.648 1.2 1.647.2 1.647-.5 1.648-1.8 1.647-1.7 1.648-.8 1.647-.8 1.647-4.1 1.648-.2h1.647l1.647.9 1.648 1.5 1.647 1.4 1.647.7 1.648-2.6 1.647.2h1.648l1.647-1 1.647-3.7 1.648-3 1.647-5 1.647-2.7 1.648-.4 1.647 1.1 1.648-.8 1.647-3 1.647-.2 1.648-.9 1.647-1.9 1.647.3 1.648-.3 1.647 1.8 1.647 2.4 1.648-.1 1.647 1 1.648-.2 1.647-.8 1.647 3 1.648-1.3 1.647-.5 1.647-1.3 1.648-.9 1.647-1.1 1.647-.7 1.648 2.4 1.647 1.3 1.648-1.7 1.647.6 1.647-.5 1.648-.1 1.647 3.4 1.647.1 1.648-1.2 1.647-3.1 1.648-1.4 1.647-2.2 1.647-2.8 1.648-1.2 1.647-1.6 1.647-2.2 1.648-1.2 1.647-1.6 1.647-3.1 1.648-1.1 1.647-.1 1.648-2 1.647-.3 1.647.1 1.648 2.7 1.647.5 1.647 1.3 1.648.6 1.647-.6 1.647-.2 1.648-1.3 1.647-.4 1.648.5 1.647.6 1.647 2.4 1.648 1.1 1.647.6 1.647.8 1.648.4 1.647.3 1.648.4 1.647-.5 1.647-.4 1.648.5 1.647 1.8 1.647 1 1.648-.8 1.647-1.1 1.647-.7 1.648.7 1.647-.7 1.648 1.3 1.647 1 1.647-.7 1.648-1.2 1.647-.3 1.647.3 1.648.1 1.647.4 1.647 1 1.648.2 1.647-.2 1.648-.1 1.647-1.7 1.647-4.3 1.648-.3 1.647-.4 1.647-1.7 1.648-.7 1.647-1.8 1.648-1 1.647 1.7 1.647.9 1.648.2 1.647-.1 1.647-.4 1.648.5 1.647.2 1.647 1.4 1.648-.2 1.647.1 1.648.2 1.647-.9 1.647 1.2 1.648.4 1.647 2.1 1.647-.5 1.648 1.9 1.647.1 1.647-1.2 1.648-.7 1.647.7 1.648.5 1.647-.2 1.647 2.3 1.648-.9 1.647-1.8 1.647.1 1.648-1.3 1.647 1.4 1.648-2.1 1.647.3 1.647-2 1.648-2.6 1.647-1.5 1.647-1.4 1.648-.1 1.647.6 1.647 1.4 1.648 1.2 1.647.7 1.648-2.4 1.647-.8 1.647-2.3 1.648-.5 1.647-1.1 1.647-1.3 1.648-4.6 1.647-3.2 1.647-.3 1.648-1.2 1.647-3.2 1.648-.6 1.647-2.2 1.647-3.1 1.648.2 1.647 1.5h1.647l1.648-.6 1.647.3 1.648 1.3 1.647-3.6 1.647-2.4 1.648-.4 1.647.3 1.647.8 1.648.6 1.647-1.9 1.647-7.3 1.648-6.2 1.647-5.1 1.648-2.6 1.647-4.1 1.647-4.2 1.648-5 1.647-4.5 1.647-3 1.648-1.9 1.647-1.5 1.647-2.5 1.648-2.2 1.647.2 1.648-.4 1.647.1 1.647 2.7 1.648.4 1.647-.4 1.647.5 1.648-.9 1.647-1.3 1.648-4.7 1.647-2.7 1.647-2 1.648-3.1 1.647.2 1.647-.6 1.648-4.3 1.647-4.6 1.647-.2 1.648 1.8 1.647 4.1 1.648 4.1 1.647 3.8 1.647 4.8 1.648 3.2 1.647 3.7 1.647 3.6 1.648 3.2 1.647 4.8 1.647 3 1.648 2.8 1.647 1 1.648 1.1 1.647 1.9 1.647-.1 1.648-.5 1.647-.8 1.647-1.4 1.648 2 1.647 1.5 1.648 5.9 1.647 6.5 1.647 7 1.648 5.7 1.647-1.2 1.647-3.5 1.648 2.1 1.647 8.3 1.648 5.4 1.647 4 1.647-2 1.648-4.8 1.647-5.1 1.647-5.7 1.648-2.2 1.647-4.4 1.647-3.1 1.648-4.1 1.647-5.1 1.648-4.2 1.647-3.4 1.647-2.6 1.648-1.1 1.647-1.1 1.647-2.3 1.648-1.4 1.647-1 1.647.2 1.648-.4 1.647-.6 1.648.1 1.647-2.3 1.647-1.2 1.648-1.7 1.647.8 1.647 1.6 1.648 2.2 1.647-.4 1.648.9 1.647-1.4 1.647-2.7 1.648-.7 1.647 1.8 1.647 1.5 1.648.9 1.647 2 1.647.8 1.648 3 1.647 1.8 1.648 2.5 1.647.5 1.647 1.5 1.648-.8 1.647-2 1.647-1.3 1.648-.3 1.647-.3 1.647-1.4 1.648-.9 1.647-1 1.648-1.5 1.647-.7 1.647-2.3 1.648-.3 1.647-.9 1.647.2 1.648-2.2 1.647-4.1 1.648-4.8 1.647-4 1.647.1 1.648 2 1.647.2 1.647.3 1.648.4 1.647-.1 1.647.4h1.648l1.647.5 1.648.2 1.647 2.3 1.647-.4 1.648-2 1.647.3 1.647 1.7 1.648.5 1.647 1.6 1.647.3 1.648-.2 1.647-.4 1.648-.5 1.647.1 1.647-.2 1.648 1.3 1.647-1.9 1.647-.1 1.648-.9h1.647l1.648 2.8 1.647 2 1.647 1.3 1.648-1.4 1.647-1.4 1.647-.5 1.648-.3 1.647-.4 1.647-1.9 1.648-2.1 1.647-1.9 1.648-1 1.647-2.6 1.647-1.6 1.648.4 1.647-1.1 1.647-.5 1.648-3.2 1.647-4.8 1.647-1.5 1.648-2.6 1.647-1.4 1.648 1.1 1.647 1.3 1.647.4 1.648-2.5 1.647 1.2 1.647-.5 1.648 2.4 1.647 1 1.648.5 1.647 1 1.647-1 1.648-.4 1.647-.1 1.03-.1" fill="none" stroke="#4572a7" stroke-width="2"/></g><g class="highcharts-axis-labels" color="#666" font-size="21" font-family="'Lucida Grande','Lucida Sans Unicode',Verdana,Arial,Helvetica,sans-serif" text-anchor="middle" fill="#666"><text x="271.919" y="535" style="line-height:14px" transform="translate(0 -21)"><tspan x="271.919">May &amp;apos;14</tspan></text><text x="474.545" y="535" style="line-height:14px" transform="translate(0 -21)"><tspan x="474.545">Sep &amp;apos;14</tspan></text><text x="675.524" y="535" style="line-height:14px" transform="translate(0 -21)"><tspan x="675.524">Jan &amp;apos;15</tspan></text><text x="873.208" y="535" style="line-height:14px" transform="translate(0 -21)"><tspan x="873.208">May &amp;apos;15</tspan></text><text x="1075.834" y="535" style="line-height:14px" transform="translate(0 -21)"><tspan x="1075.834">Sep &amp;apos;15</tspan></text><text x="1276.813" y="535" style="line-height:14px" transform="translate(0 -21)"><tspan x="1276.813">Jan &amp;apos;16</tspan></text><text x="171.43" y="535" style="line-height:14px" transform="translate(0 -21)"><tspan x="171.43">Mar &amp;apos;14</tspan></text><text x="372.409" y="535" style="line-height:14px" transform="translate(0 -21)"><tspan x="372.409">Jul &amp;apos;14</tspan></text><text x="575.035" y="535" style="line-height:14px" transform="translate(0 -21)"><tspan x="575.035">Nov &amp;apos;14</tspan></text><text x="772.719" y="535" style="line-height:14px" transform="translate(0 -21)"><tspan x="772.719">Mar &amp;apos;15</tspan></text><text x="973.697" y="535" style="line-height:14px" transform="translate(0 -21)"><tspan x="973.697">Jul &amp;apos;15</tspan></text><text x="1176.324" y="535" style="line-height:14px" transform="translate(0 -21)"><tspan x="1176.324">Nov &amp;apos;15</tspan></text></g><g class="highcharts-axis-labels" color="#666" font-size="21" font-family="'Lucida Grande','Lucida Sans Unicode',Verdana,Arial,Helvetica,sans-serif" text-anchor="end" fill="#666"><text x="67.037" y="498.701" style="line-height:14px" visibility="hidden" transform="translate(0 -11)"><tspan x="67.037">0.1</tspan></text><text x="67" y="338.732" style="line-height:14px" transform="translate(0 -11)"><tspan x="67">0.2</tspan></text><text x="67" y="179.863" style="line-height:14px" transform="translate(0 -11)"><tspan x="67">0.4</tspan></text><text x="67" y="86.931" style="line-height:14px" transform="translate(0 -11)"><tspan x="67">0.6</tspan></text><text x="67" y="245.8" style="line-height:14px" transform="translate(0 -11)"><tspan x="67">0.3</tspan></text><text x="67" y="128.719" style="line-height:14px" transform="translate(0 -11)"><tspan x="67">0.5</tspan></text><text x="67" y="51.6" style="line-height:14px" transform="translate(0 -11)"><tspan x="67">0.7</tspan></text></g><path d="M77.02 382.9h10l1.647 4.6 1.647 22.8 1.648-2.2 1.647 6.5 1.647 2.9 1.648-53.6 1.647 2.5 1.648 40.7 1.647-54.6 1.647 36.8 1.648 16.2 1.647-36.4 1.647-24.9 1.648 27.3 1.647-7 1.647 8 1.648-4.2 1.647 8.2 1.648-14.5 1.647-2.6 1.647 4.8 1.648-1.6 1.647 7 1.647 5.1 1.648-2.5 1.647-1.3 1.648-6 1.647-.3 1.647-.6 1.648-3.3 1.647-1.7 1.647-2.3 1.648-3.4 1.647-1.9 1.647-4.9 1.648-1.5 1.647-1.9 1.648-2.4 1.647 1.9 1.647-1 1.648-3.9 1.647-.8 1.647-.9 1.648-2.7 1.647-.7 1.647-.7 1.648-1.4 1.647-4.7 1.648-1.4 1.647-.7 1.647-.8 1.648-3.1 1.647-2.3 1.647-5.6 1.648-7.7 1.647-4 1.648-1.6 1.647-.8 1.647.3 1.648.7 1.647-1.4 1.647-1.8 1.648-1.2 1.647-2.3 1.647-.8 1.648.4 1.647 1.5 1.648.5 1.647-1.3 1.647-1.1 1.648.4 1.647-1.3 1.647-.1 1.648 2.9 1.647.4 1.647-2.2 1.648-1 1.647 1.3 1.648.5 1.647 1.2 1.647-.3 1.648 2.1 1.647.8 1.647 3.3 1.648 7 1.647 3.4 1.648 2.4 1.647 1 1.647-.6 1.648-1.9 1.647-.6 1.647.5 1.648.1 1.647 2.2 1.647 5 1.648-.3 1.647-1.7 1.648-3.9 1.647-1.3 1.647.2 1.648 1 1.647 2.2 1.647 1.9 1.648-3.9 1.647-1.3 1.647.1 1.648-.9 1.647 2.1 1.648 1.1 1.647-1.3 1.647-.5 1.648-1.4 1.647-.2 1.647.3 1.648-1.1 1.647-.5 1.648-2.8 1.647-.4 1.647-.2 1.648 1 1.647.8 1.647 1.9 1.648 2.4 1.647-2.2 1.647-3.1 1.648-1.6 1.647-.8 1.648 2.6 1.647 1.5 1.647-.2 1.648-.7 1.647-1.8 1.647-2.1 1.648.8 1.647-1.6 1.647 2.2 1.648 1.7 1.647-1.3 1.648-3.9 1.647-.9 1.647-1.9 1.648.6 1.647.1 1.647.3 1.648.1 1.647-.8 1.648 2.3 1.647-1.5 1.647-.8 1.648 1.4 1.647 1.1 1.647-2.4 1.648-1.3 1.647-.1 1.647-.2 1.648.9 1.647 1.9 1.648 1.4 1.647-.2 1.647-.1 1.648-.3 1.647-.3 1.647 1.8 1.648 2.6 1.647 3.5 1.647-.5 1.648 1 1.647.7 1.648 3.1 1.647 1.8 1.647 4.1 1.648 1.7 1.647-3.2 1.647-4.8 1.648-3.1 1.647-2 1.648-.2 1.647 3.1 1.647 1.5 1.648-1.8 1.647-2.3 1.647-.7 1.648-.6 1.647.3 1.647 1.5 1.648.5 1.647-1.4 1.648-3.9 1.647-1.4 1.647-.6 1.648-.3 1.647 1.3 1.647-.1 1.648-2.5 1.647-3.5 1.647-1.8 1.648-1.9 1.647-1.3 1.648-.6 1.647-.3 1.647-2.9 1.648-1.9 1.647 2.6 1.647 2.1 1.648 1 1.647 2.7 1.648.5 1.647-2.7 1.647-3.2 1.648-1.6 1.647.1 1.647.9 1.648 1.1 1.647 1.4 1.647-1.3 1.648-1 1.647-1.7 1.648.2 1.647-.4 1.647-2.6 1.648.6 1.647-.7 1.647-.1 1.648-.5 1.647.5 1.647.7 1.648 1.2 1.647 1.2 1.648-1.6 1.647-1.8 1.647.3 1.648.9 1.647-.1 1.647 1.8 1.648 2.5 1.647-1.7 1.648-2.6 1.647.2 1.647 2.6 1.648 1.6 1.647 1 1.647.5 1.648-1.8 1.647-4.2 1.647-3.9 1.648.5 1.647 1.9 1.648 2.8 1.647.4 1.647.4 1.648-2.9 1.647-.3 1.647-1.1 1.648.5 1.647 1.6 1.647.9 1.648-1.4 1.647-2.2 1.648-.3 1.647-1.2 1.647-.7 1.648-2.6 1.647-2.8 1.647-3.1 1.648-3.6 1.647-1.8 1.648-.1 1.647-1 1.647-2.2 1.648.4 1.647-1.4 1.647-2 1.648-2.2 1.647.9 1.647 2.2 1.648-.6 1.647-1.4 1.648-3 1.647-3h1.647l1.648.7 1.647-2 1.647.1 1.648-1.5 1.647-3.1 1.647-3.2 1.648-.2 1.647-1.2 1.648.5 1.647.5 1.647-.7 1.648-.2 1.647-.5 1.647-.8 1.648.3 1.647 1.4 1.648.9h3.294l1.648-1.7 1.647-.7 1.647-1.1 1.648-.5 1.647.5 1.647-1.4 1.648-1.6 1.647-1.6 1.648-2 1.647-1.3 1.647-1.3 1.648.1 1.647-.1 1.647-2.7 1.648-.7 1.647-.8 1.647-.4 1.648-2.9 1.647 1.1 1.648-1 1.647-.9 1.647-1.6 1.648-1 1.647-.5 1.647.5 1.648-.2 1.647-1.4 1.648-3.5 1.647-2.4 1.647-3.3 1.648-1.5 1.647-.9 1.647.5 1.648.1 1.647-1.7 1.647-.6h1.648l1.647.1 1.648 1.3 1.647 2.1 1.647.2 1.648-2.9 1.647-2.7 1.647-2 1.648-2.6 1.647-1.1 1.647-.9 1.648 1.4 1.647-3 1.648-.8 1.647-.3 1.647 3 1.648 1.9 1.647 1.6 1.647 1 1.648.5 1.647.1 1.648 2.6 1.647 4.6 1.647 4.8 1.648 1.9 1.647 1.2 1.647.1 1.648 1.2 1.647.2 1.647-.5 1.648-1.8 1.647-1.7 1.648-.8 1.647-.8 1.647-4.1 1.648-.2h1.647l1.647.9 1.648 1.5 1.647 1.4 1.647.7 1.648-2.6 1.647.2h1.648l1.647-1 1.647-3.7 1.648-3 1.647-5 1.647-2.7 1.648-.4 1.647 1.1 1.648-.8 1.647-3 1.647-.2 1.648-.9 1.647-1.9 1.647.3 1.648-.3 1.647 1.8 1.647 2.4 1.648-.1 1.647 1 1.648-.2 1.647-.8 1.647 3 1.648-1.3 1.647-.5 1.647-1.3 1.648-.9 1.647-1.1 1.647-.7 1.648 2.4 1.647 1.3 1.648-1.7 1.647.6 1.647-.5 1.648-.1 1.647 3.4 1.647.1 1.648-1.2 1.647-3.1 1.648-1.4 1.647-2.2 1.647-2.8 1.648-1.2 1.647-1.6 1.647-2.2 1.648-1.2 1.647-1.6 1.647-3.1 1.648-1.1 1.647-.1 1.648-2 1.647-.3 1.647.1 1.648 2.7 1.647.5 1.647 1.3 1.648.6 1.647-.6 1.647-.2 1.648-1.3 1.647-.4 1.648.5 1.647.6 1.647 2.4 1.648 1.1 1.647.6 1.647.8 1.648.4 1.647.3 1.648.4 1.647-.5 1.647-.4 1.648.5 1.647 1.8 1.647 1 1.648-.8 1.647-1.1 1.647-.7 1.648.7 1.647-.7 1.648 1.3 1.647 1 1.647-.7 1.648-1.2 1.647-.3 1.647.3 1.648.1 1.647.4 1.647 1 1.648.2 1.647-.2 1.648-.1 1.647-1.7 1.647-4.3 1.648-.3 1.647-.4 1.647-1.7 1.648-.7 1.647-1.8 1.648-1 1.647 1.7 1.647.9 1.648.2 1.647-.1 1.647-.4 1.648.5 1.647.2 1.647 1.4 1.648-.2 1.647.1 1.648.2 1.647-.9 1.647 1.2 1.648.4 1.647 2.1 1.647-.5 1.648 1.9 1.647.1 1.647-1.2 1.648-.7 1.647.7 1.648.5 1.647-.2 1.647 2.3 1.648-.9 1.647-1.8 1.647.1 1.648-1.3 1.647 1.4 1.648-2.1 1.647.3 1.647-2 1.648-2.6 1.647-1.5 1.647-1.4 1.648-.1 1.647.6 1.647 1.4 1.648 1.2 1.647.7 1.648-2.4 1.647-.8 1.647-2.3 1.648-.5 1.647-1.1 1.647-1.3 1.648-4.6 1.647-3.2 1.647-.3 1.648-1.2 1.647-3.2 1.648-.6 1.647-2.2 1.647-3.1 1.648.2 1.647 1.5h1.647l1.648-.6 1.647.3 1.648 1.3 1.647-3.6 1.647-2.4 1.648-.4 1.647.3 1.647.8 1.648.6 1.647-1.9 1.647-7.3 1.648-6.2 1.647-5.1 1.648-2.6 1.647-4.1 1.647-4.2 1.648-5 1.647-4.5 1.647-3 1.648-1.9 1.647-1.5 1.647-2.5 1.648-2.2 1.647.2 1.648-.4 1.647.1 1.647 2.7 1.648.4 1.647-.4 1.647.5 1.648-.9 1.647-1.3 1.648-4.7 1.647-2.7 1.647-2 1.648-3.1 1.647.2 1.647-.6 1.648-4.3 1.647-4.6 1.647-.2 1.648 1.8 1.647 4.1 1.648 4.1 1.647 3.8 1.647 4.8 1.648 3.2 1.647 3.7 1.647 3.6 1.648 3.2 1.647 4.8 1.647 3 1.648 2.8 1.647 1 1.648 1.1 1.647 1.9 1.647-.1 1.648-.5 1.647-.8 1.647-1.4 1.648 2 1.647 1.5 1.648 5.9 1.647 6.5 1.647 7 1.648 5.7 1.647-1.2 1.647-3.5 1.648 2.1 1.647 8.3 1.648 5.4 1.647 4 1.647-2 1.648-4.8 1.647-5.1 1.647-5.7 1.648-2.2 1.647-4.4 1.647-3.1 1.648-4.1 1.647-5.1 1.648-4.2 1.647-3.4 1.647-2.6 1.648-1.1 1.647-1.1 1.647-2.3 1.648-1.4 1.647-1 1.647.2 1.648-.4 1.647-.6 1.648.1 1.647-2.3 1.647-1.2 1.648-1.7 1.647.8 1.647 1.6 1.648 2.2 1.647-.4 1.648.9 1.647-1.4 1.647-2.7 1.648-.7 1.647 1.8 1.647 1.5 1.648.9 1.647 2 1.647.8 1.648 3 1.647 1.8 1.648 2.5 1.647.5 1.647 1.5 1.648-.8 1.647-2 1.647-1.3 1.648-.3 1.647-.3 1.647-1.4 1.648-.9 1.647-1 1.648-1.5 1.647-.7 1.647-2.3 1.648-.3 1.647-.9 1.647.2 1.648-2.2 1.647-4.1 1.648-4.8 1.647-4 1.647.1 1.648 2 1.647.2 1.647.3 1.648.4 1.647-.1 1.647.4h1.648l1.647.5 1.648.2 1.647 2.3 1.647-.4 1.648-2 1.647.3 1.647 1.7 1.648.5 1.647 1.6 1.647.3 1.648-.2 1.647-.4 1.648-.5 1.647.1 1.647-.2 1.648 1.3 1.647-1.9 1.647-.1 1.648-.9h1.647l1.648 2.8 1.647 2 1.647 1.3 1.648-1.4 1.647-1.4 1.647-.5 1.648-.3 1.647-.4 1.647-1.9 1.648-2.1 1.647-1.9 1.648-1 1.647-2.6 1.647-1.6 1.648.4 1.647-1.1 1.647-.5 1.648-3.2 1.647-4.8 1.647-1.5 1.648-2.6 1.647-1.4 1.648 1.1 1.647 1.3 1.647.4 1.648-2.5 1.647 1.2 1.647-.5 1.648 2.4 1.647 1 1.648.5 1.647 1 1.647-1 1.648-.4 1.647-.1 1.03-.1h10" fill="none" class="highcharts-tracker"/></svg>