<?xml version="1.0" encoding="UTF-8" standalone="no"?>
<svg
   xmlns:dc="http://purl.org/dc/elements/1.1/"
   xmlns:cc="http://creativecommons.org/ns#"
   xmlns:rdf="http://www.w3.org/1999/02/22-rdf-syntax-ns#"
   xmlns:svg="http://www.w3.org/2000/svg"
   xmlns="http://www.w3.org/2000/svg"
   xmlns:sodipodi="http://sodipodi.sourceforge.net/DTD/sodipodi-0.dtd"
   xmlns:inkscape="http://www.inkscape.org/namespaces/inkscape"
   version="1.1"
   width="1326"
   height="530"
   id="svg2"
   inkscape:version="0.91 r13725"
   sodipodi:docname="blocksize.svg">
  <metadata
     id="metadata192">
    <rdf:RDF>
      <cc:Work
         rdf:about="">
        <dc:format>image/svg+xml</dc:format>
        <dc:type
           rdf:resource="http://purl.org/dc/dcmitype/StillImage" />
        <dc:title />
      </cc:Work>
    </rdf:RDF>
  </metadata>
  <sodipodi:namedview
     pagecolor="#ffffff"
     bordercolor="#666666"
     borderopacity="1"
     objecttolerance="10"
     gridtolerance="10"
     guidetolerance="10"
     inkscape:pageopacity="0"
     inkscape:pageshadow="2"
     inkscape:window-width="1347"
     inkscape:window-height="739"
     id="namedview190"
     showgrid="false"
     fit-margin-top="20"
     inkscape:zoom="9.5790518"
     inkscape:cx="1278.3897"
     inkscape:cy="465.45181"
     inkscape:window-x="0"
     inkscape:window-y="0"
     inkscape:window-maximized="0"
     inkscape:current-layer="svg2"
     showguides="false" />
  <defs
     id="defs4">
    <clipPath
       id="highcharts-1">
      <rect
         rx="0"
         ry="0"
         x="0"
         y="0"
         width="9999"
         height="400"
         id="rect7"
         style="fill:none;stroke-width:0.000001" />
    </clipPath>
    <clipPath
       id="highcharts-2">
      <rect
         x="0"
         y="0"
         width="1226"
         height="446"
         id="rect10"
         style="fill:none" />
    </clipPath>
  </defs>
  <rect
     rx="5"
     ry="5"
     x="0"
     y="-21"
     width="1326"
     height="541"
     id="rect12"
     style="fill:none;stroke-width:0.000001" />
  <g
     class="highcharts-grid"
     zIndex="1"
     id="g14"
     transform="translate(0,-11)" />
  <g
     class="highcharts-grid"
     zIndex="1"
     id="g16"
     transform="translate(0,-21)">
    <path
       d="m 75,342.5 1226,0"
       zIndex="1"
       id="path18"
       inkscape:connector-curvature="0"
       style="fill:none;stroke:#c0c0c0;stroke-width:1" />
    <path
       d="m 75,183.5 1226,0"
       zIndex="1"
       id="path20"
       inkscape:connector-curvature="0"
       style="fill:none;stroke:#c0c0c0;stroke-width:1" />
    <path
       d="m 75,90.5 1226,0"
       zIndex="1"
       id="path22"
       inkscape:connector-curvature="0"
       style="fill:none;stroke:#c0c0c0;stroke-width:1" />
    <path
       d="m 75,501.5 1226,0"
       zIndex="1"
       id="path24"
       inkscape:connector-curvature="0"
       style="fill:none;stroke:#c0c0c0;stroke-width:1" />
    <path
       d="m 75,249.5 1226,0"
       zIndex="1"
       id="path26"
       inkscape:connector-curvature="0"
       style="fill:none;stroke:#c0c0c0;stroke-width:1" />
    <path
       zIndex="1"
       d="m 75,132.5 1226,0"
       id="path28"
       inkscape:connector-curvature="0"
       style="fill:none;stroke:#c0c0c0;stroke-width:1" />
    <path
       zIndex="1"
       d="m 75,55.5 1226,0"
       id="path30"
       inkscape:connector-curvature="0"
       style="fill:none;stroke:#c0c0c0;stroke-width:1" />
  </g>
  <g
     class="highcharts-axis"
     zIndex="2"
     id="g32"
     transform="translate(0,-21)">
    <path
       d="m 474.5,501 0,5"
       id="path34"
       inkscape:connector-curvature="0"
       style="fill:none;stroke:#c0d0e0;stroke-width:1" />
    <path
       d="m 675.5,501 0,5"
       id="path36"
       inkscape:connector-curvature="0"
       style="fill:none;stroke:#c0d0e0;stroke-width:1" />
    <path
       d="m 872.5,501 0,5"
       id="path38"
       inkscape:connector-curvature="0"
       style="fill:none;stroke:#c0d0e0;stroke-width:1" />
    <path
       d="m 1075.5,501 0,5"
       id="path40"
       inkscape:connector-curvature="0"
       style="fill:none;stroke:#c0d0e0;stroke-width:1" />
    <path
       d="m 1276.5,501 0,5"
       id="path42"
       inkscape:connector-curvature="0"
       style="fill:none;stroke:#c0d0e0;stroke-width:1" />
    <path
       d="m 271.5,501 0,5"
       id="path44"
       inkscape:connector-curvature="0"
       style="fill:none;stroke:#c0d0e0;stroke-width:1" />
    <path
       d="m 371.5,501 0,5"
       id="path46"
       inkscape:connector-curvature="0"
       style="fill:none;stroke:#c0d0e0;stroke-width:1" />
    <path
       d="m 574.5,501 0,5"
       id="path48"
       inkscape:connector-curvature="0"
       style="fill:none;stroke:#c0d0e0;stroke-width:1" />
    <path
       d="m 772.5,501 0,5"
       id="path50"
       inkscape:connector-curvature="0"
       style="fill:none;stroke:#c0d0e0;stroke-width:1" />
    <path
       d="m 973.5,501 0,5"
       id="path52"
       inkscape:connector-curvature="0"
       style="fill:none;stroke:#c0d0e0;stroke-width:1" />
    <path
       d="m 1175.5,501 0,5"
       id="path54"
       inkscape:connector-curvature="0"
       style="fill:none;stroke:#c0d0e0;stroke-width:1" />
    <path
       d="m 170.5,501 0,5"
       id="path56"
       inkscape:connector-curvature="0"
       style="fill:none;stroke:#c0d0e0;stroke-width:1" />
    <path
       d="m 75,501.5 1226,0"
       zIndex="7"
       visibility="visible"
       id="path58"
       inkscape:connector-curvature="0"
       style="visibility:visible;fill:none;stroke:#c0d0e0;stroke-width:1" />
  </g>
  <g
     class="highcharts-axis"
     zIndex="2"
     id="g60"
     transform="translate(0,-21)">
    <text
       x="30"
       y="280"
       style="color:#6d869f;font-weight:bold;font-size:17px;font-family:'Lucida Grande', 'Lucida Sans Unicode', Verdana, Arial, Helvetica, sans-serif;text-anchor:middle;visibility:visible;fill:#6d869f"
       zIndex="7"
       transform="matrix(0,-1,1,0,-254,302)"
       visibility="visible"
       id="text62">
      <tspan
         x="88"
         id="tspan64">MB</tspan>
    </text>
  </g>
  <g
     class="highcharts-series-group"
     zIndex="3"
     id="g66"
     transform="translate(0,-21)">
    <g
       class="highcharts-series"
       visibility="visible"
       zIndex="0.1"
       transform="translate(75,55)"
       clip-path="url(#highcharts-2)"
       id="g68"
       style="visibility:visible">
      <path
         d="m 12.019608,348.9 1.647367,4.6 1.647366,22.8 1.647367,-2.2 1.647367,6.5 1.647366,2.9 1.647367,-53.6 1.647367,2.5 1.647366,40.7 1.647367,-54.6 1.647367,36.8 1.647366,16.2 1.647367,-36.4 1.647367,-24.9 1.647367,27.3 1.647366,-7 1.647367,8 1.647367,-4.2 1.647366,8.2 1.647367,-14.5 1.647367,-2.6 1.647366,4.8 1.647367,-1.6 1.647367,7 1.647367,5.1 1.647366,-2.5 1.647367,-1.3 1.647367,-6 1.647366,-0.3 1.647367,-0.6 1.647367,-3.3 1.647366,-1.7 1.647367,-2.3 1.647367,-3.4 1.647367,-1.9 1.647366,-4.9 1.647367,-1.5 1.647367,-1.9 1.647366,-2.4 1.647367,1.9 1.647367,-1 1.647366,-3.9 1.647367,-0.8 1.647367,-0.9 1.647366,-2.7 1.647367,-0.7 1.647367,-0.7 1.647367,-1.4 1.647366,-4.7 1.647367,-1.4 1.647367,-0.7 1.647366,-0.8 1.647367,-3.1 1.647367,-2.3 1.647367,-5.6 1.64737,-7.7 1.64736,-4 1.64737,-1.6 1.64737,-0.8 1.64736,0.3 1.64737,0.7 1.64737,-1.4 1.64736,-1.8 1.64737,-1.2 1.64737,-2.3 1.64736,-0.8 1.64737,0.4 1.64737,1.5 1.64736,0.5 1.64737,-1.3 1.64737,-1.1 1.64736,0.4 1.64737,-1.3 1.64737,-0.1 1.64736,2.9 1.64737,0.4 1.64737,-2.2 1.64736,-1 1.64737,1.3 1.64737,0.5 1.64736,1.2 1.64737,-0.3 1.64737,2.1 1.64736,0.8 1.64737,3.3 1.64737,7 1.64736,3.4 1.64737,2.4 1.64737,1 1.64736,-0.6 1.64737,-1.9 1.64737,-0.6 1.64736,0.5 1.64737,0.1 1.64737,2.2 1.64736,5 1.64737,-0.3 1.64737,-1.7 1.64736,-3.9 1.64737,-1.3 1.64737,0.2 1.64736,1 1.64737,2.2 1.64737,1.9 1.64736,-3.9 1.64737,-1.3 1.64737,0.1 1.64736,-0.9 1.64737,2.1 1.64737,1.1 1.64736,-1.3 1.64737,-0.5 1.64737,-1.4 1.64736,-0.2 1.64737,0.3 1.64737,-1.1 1.64736,-0.5 1.64737,-2.8 1.64737,-0.4 1.64736,-0.2 1.64737,1 1.64737,0.8 1.64736,1.9 1.64737,2.4 1.64737,-2.2 1.64736,-3.1 1.64737,-1.6 1.64737,-0.8 1.64736,2.6 1.64737,1.5 1.64737,-0.2 1.64737,-0.7 1.64736,-1.8 1.64737,-2.1 1.64737,0.8 1.64736,-1.6 1.64737,2.2 1.64737,1.7 1.64736,-1.3 1.64737,-3.9 1.64737,-0.9 1.64736,-1.9 1.64737,0.6 1.64737,0.1 1.64736,0.3 1.64737,0.1 1.64737,-0.8 1.64736,2.3 1.64737,-1.5 1.64737,-0.8 1.64736,1.4 1.64737,1.1 1.64737,-2.4 1.64736,-1.3 1.64737,-0.1 1.64737,-0.2 1.64736,0.9 1.64737,1.9 1.64737,1.4 1.64736,-0.2 1.64737,-0.1 1.64737,-0.3 1.64736,-0.3 1.64737,1.8 1.64737,2.6 1.64736,3.5 1.64737,-0.5 1.64737,1 1.64736,0.7 1.64737,3.1 1.64737,1.8 1.64736,4.1 1.64737,1.7 1.64737,-3.2 1.64736,-4.8 1.64737,-3.1 1.64737,-2 1.64736,-0.2 1.64737,3.1 1.64737,1.5 1.64736,-1.8 1.64737,-2.3 1.64737,-0.7 1.64736,-0.6 1.64737,0.3 1.64737,1.5 1.64736,0.5 1.64737,-1.4 1.64737,-3.9 1.64736,-1.4 1.64737,-0.6 1.64737,-0.3 1.64736,1.3 1.64737,-0.1 1.64737,-2.5 1.64736,-3.5 1.64737,-1.8 1.64737,-1.9 1.64736,-1.3 1.64737,-0.6 1.64737,-0.3 1.64736,-2.9 1.64737,-1.9 1.64737,2.6 1.64736,2.1 1.64737,1 1.64737,2.7 1.64736,0.5 1.64737,-2.7 1.64737,-3.2 1.64736,-1.6 1.64737,0.1 1.64737,0.9 1.64736,1.1 1.64737,1.4 1.64737,-1.3 1.64736,-1 1.64737,-1.7 1.64737,0.2 1.64736,-0.4 1.64737,-2.6 1.64737,0.6 1.64736,-0.7 1.64737,-0.1 1.64737,-0.5 1.64736,0.5 1.64737,0.7 1.64737,1.2 1.64736,1.2 1.64737,-1.6 1.64737,-1.8 1.64736,0.3 1.64737,0.9 1.64737,-0.1 1.64736,1.8 1.64737,2.5 1.64737,-1.7 1.64736,-2.6 1.64737,0.2 1.64737,2.6 1.64736,1.6 1.64737,1 1.64737,0.5 1.64736,-1.8 1.64737,-4.2 1.64737,-3.9 1.64737,0.5 1.64736,1.9 1.64737,2.8 1.64737,0.4 1.64736,0.4 1.64737,-2.9 1.64737,-0.3 1.64736,-1.1 1.64737,0.5 1.64737,1.6 1.64736,0.9 1.64737,-1.4 1.64737,-2.2 1.64736,-0.3 1.64737,-1.2 1.64737,-0.7 1.64736,-2.6 1.64737,-2.8 1.64737,-3.1 1.64736,-3.6 1.64737,-1.8 1.64737,-0.1 1.64736,-1 1.64737,-2.2 1.64737,0.4 1.64736,-1.4 1.64737,-2 1.64737,-2.2 1.64736,0.9 1.64737,2.2 1.64737,-0.6 1.64736,-1.4 1.64737,-3 1.64737,-3 1.64736,0 1.64737,0.7 1.64737,-2 1.64736,0.1 1.64737,-1.5 1.64737,-3.1 1.64736,-3.2 1.64737,-0.2 1.64737,-1.2 1.64736,0.5 1.64737,0.5 1.64737,-0.7 1.64736,-0.2 1.64737,-0.5 1.64737,-0.8 1.64736,0.3 1.64737,1.4 1.64737,0.9 1.64736,0 1.64737,0 1.64737,-1.7 1.64736,-0.7 1.64737,-1.1 1.64737,-0.5 1.64736,0.5 1.64737,-1.4 1.64737,-1.6 1.64736,-1.6 1.64737,-2 1.64737,-1.3 1.64736,-1.3 1.64737,0.1 1.64737,-0.1 1.64736,-2.7 1.64737,-0.7 1.64737,-0.8 1.64736,-0.4 1.64737,-2.9 1.64737,1.1 1.64736,-1 1.64737,-0.9 1.64737,-1.6 1.64736,-1 1.64737,-0.5 1.64737,0.5 1.64736,-0.2 1.64737,-1.4 1.64737,-3.5 1.64736,-2.4 1.64737,-3.3 1.64737,-1.5 1.64736,-0.9 1.64737,0.5 1.64737,0.1 1.64736,-1.7 1.64737,-0.6 1.64737,0 1.64736,0.1 1.64737,1.3 1.64737,2.1 1.64736,0.2 1.64737,-2.9 1.64737,-2.7 1.64736,-2 1.64737,-2.6 1.64737,-1.1 1.64736,-0.9 1.64737,1.4 1.64737,-3 1.64736,-0.8 1.64737,-0.3 1.64737,3 1.64736,1.9 1.64737,1.6 1.64737,1 1.64736,0.5 1.64737,0.1 1.64737,2.6 1.64737,4.6 1.64736,4.8 1.64737,1.9 1.64737,1.2 1.64736,0.1 1.64737,1.2 1.64737,0.2 1.64736,-0.5 1.64737,-1.8 1.64737,-1.7 1.64736,-0.8 1.64737,-0.8 1.64737,-4.1 1.64736,-0.2 1.64737,0 1.64737,0.9 1.64736,1.5 1.64737,1.4 1.64737,0.7 1.64736,-2.6 1.64737,0.2 1.64737,0 1.64736,-1 1.64737,-3.7 1.64737,-3 1.64736,-5 1.64737,-2.7 1.64737,-0.4 1.64736,1.1 1.64737,-0.8 1.64737,-3 1.64736,-0.2 1.64737,-0.9 1.64737,-1.9 1.64736,0.3 1.64737,-0.3 1.64737,1.8 1.64736,2.4 1.64737,-0.1 1.64737,1 1.64736,-0.2 1.64737,-0.8 1.64737,3 1.64736,-1.3 1.64737,-0.5 1.64737,-1.3 1.64736,-0.9 1.64737,-1.1 1.64737,-0.7 1.64736,2.4 1.64737,1.3 1.64737,-1.7 1.64736,0.6 1.64737,-0.5 1.64737,-0.1 1.64736,3.4 1.64737,0.1 1.64737,-1.2 1.64736,-3.1 1.64737,-1.4 1.64737,-2.2 1.64736,-2.8 1.64737,-1.2 1.64737,-1.6 1.64736,-2.2 1.64737,-1.2 1.64737,-1.6 1.64736,-3.1 1.64737,-1.1 1.64737,-0.1 1.64736,-2 1.64737,-0.3 1.64737,0.1 1.64736,2.7 1.64737,0.5 1.64737,1.3 1.64736,0.6 1.64737,-0.6 1.64737,-0.2 1.64736,-1.3 1.64737,-0.4 1.64737,0.5 1.64736,0.6 1.64737,2.4 1.64737,1.1 1.64736,0.6 1.64737,0.8 1.64737,0.4 1.64736,0.3 1.64737,0.4 1.64737,-0.5 1.64736,-0.4 1.64737,0.5 1.64737,1.8 1.64736,1 1.64737,-0.8 1.64737,-1.1 1.64736,-0.7 1.64737,0.7 1.64737,-0.7 1.64736,1.3 1.64737,1 1.64737,-0.7 1.64736,-1.2 1.64737,-0.3 1.64737,0.3 1.64736,0.1 1.64737,0.4 1.64737,1 1.64736,0.2 1.64737,-0.2 1.64737,-0.1 1.64736,-1.7 1.64737,-4.3 1.64737,-0.3 1.64737,-0.4 1.64736,-1.7 1.64737,-0.7 1.64737,-1.8 1.64736,-1 1.64737,1.7 1.64737,0.9 1.64736,0.2 1.64737,-0.1 1.64737,-0.4 1.64736,0.5 1.64737,0.2 1.64737,1.4 1.64736,-0.2 1.64737,0.1 1.64737,0.2 1.64736,-0.9 1.64737,1.2 1.64737,0.4 1.64736,2.1 1.64737,-0.5 1.64737,1.9 1.64736,0.1 1.64737,-1.2 1.64737,-0.7 1.64736,0.7 1.64737,0.5 1.64737,-0.2 1.64736,2.3 1.64737,-0.9 1.64737,-1.8 1.64736,0.1 1.64737,-1.3 1.64737,1.4 1.64736,-2.1 1.64737,0.3 1.64737,-2 1.64736,-2.6 1.64737,-1.5 1.64737,-1.4 1.64736,-0.1 1.64737,0.6 1.64737,1.4 1.64736,1.2 1.64737,0.7 1.64737,-2.4 1.64736,-0.8 1.64737,-2.3 1.64737,-0.5 1.64736,-1.1 1.64737,-1.3 1.64737,-4.6 1.64736,-3.2 1.64737,-0.3 1.64737,-1.2 1.64736,-3.2 1.64737,-0.6 1.64737,-2.2 1.64736,-3.1 1.64737,0.2 1.64737,1.5 1.64736,0 1.64737,-0.6 1.64737,0.3 1.64736,1.3 1.64737,-3.6 1.64737,-2.4 1.64736,-0.4 1.64737,0.3 1.64737,0.8 1.64736,0.6 1.64737,-1.9 1.64737,-7.3 1.64736,-6.2 1.64737,-5.1 1.64737,-2.6 1.64736,-4.1 1.64737,-4.2 1.64737,-5 1.64736,-4.5 1.64737,-3 1.64737,-1.9 1.64736,-1.5 1.64737,-2.5 1.64737,-2.2 1.64736,0.2 1.64737,-0.4 1.64737,0.1 1.64736,2.7 1.64737,0.4 1.64737,-0.4 1.64736,0.5 1.64737,-0.9 1.64737,-1.3 1.64736,-4.7 1.64737,-2.7 1.64737,-2 1.64736,-3.1 1.64737,0.2 1.64737,-0.6 1.64736,-4.3 1.64737,-4.6 1.64737,-0.2 1.64736,1.8 1.64737,4.1 1.64737,4.1 1.64736,3.8 1.64737,4.8 1.64737,3.2 1.64736,3.7 1.64737,3.6 1.64737,3.2 1.64736,4.8 1.64737,3 1.64737,2.8 1.64737,1 1.64736,1.1 1.64737,1.9 1.64737,-0.1 1.64736,-0.5 1.64737,-0.8 1.64737,-1.4 1.64736,2 1.64737,1.5 1.64737,5.9 1.64736,6.5 1.64737,7 1.64734,5.7 1.6474,-1.2 1.6474,-3.5 1.6473,2.1 1.6474,8.3 1.6474,5.4 1.6473,4 1.6474,-2 1.6474,-4.8 1.6473,-5.1 1.6474,-5.7 1.6474,-2.2 1.6473,-4.4 1.6474,-3.1 1.6474,-4.1 1.6473,-5.1 1.6474,-4.2 1.6474,-3.4 1.6473,-2.6 1.6474,-1.1 1.6474,-1.1 1.6473,-2.3 1.6474,-1.4 1.6474,-1 1.6473,0.2 1.6474,-0.4 1.6474,-0.6 1.6473,0.1 1.6474,-2.3 1.6474,-1.2 1.6473,-1.7 1.6474,0.8 1.6474,1.6 1.6473,2.2 1.6474,-0.4 1.6474,0.9 1.6473,-1.4 1.6474,-2.7 1.6474,-0.7 1.6473,1.8 1.6474,1.5 1.6474,0.9 1.6473,2 1.6474,0.8 1.6474,3 1.6473,1.8 1.6474,2.5 1.6474,0.5 1.6473,1.5 1.6474,-0.8 1.6474,-2 1.6473,-1.3 1.6474,-0.3 1.6474,-0.3 1.6473,-1.4 1.6474,-0.9 1.6474,-1 1.6473,-1.5 1.6474,-0.7 1.6474,-2.3 1.6473,-0.3 1.6474,-0.9 1.6474,0.2 1.6473,-2.2 1.6474,-4.1 1.6474,-4.8 1.6473,-4 1.6474,0.1 1.6474,2 1.6473,0.2 1.6474,0.3 1.6474,0.4 1.6473,-0.1 1.6474,0.4 1.6474,0 1.6473,0.5 1.6474,0.2 1.6474,2.3 1.6473,-0.4 1.6474,-2 1.6474,0.3 1.6473,1.7 1.6474,0.5 1.6474,1.6 1.6473,0.3 1.6474,-0.2 1.6474,-0.4 1.6473,-0.5 1.6474,0.1 1.6474,-0.2 1.6473,1.3 1.6474,-1.9 1.6474,-0.1 1.6473,-0.9 1.6474,0 1.6474,2.8 1.6473,2 1.6474,1.3 1.6474,-1.4 1.6473,-1.4 1.6474,-0.5 1.6474,-0.3 1.6473,-0.4 1.6474,-1.9 1.6474,-2.1 1.6473,-1.9 1.6474,-1 1.6474,-2.6 1.6473,-1.6 1.6474,0.4 1.6474,-1.1 1.6473,-0.5 1.6474,-3.2 1.6474,-4.8 1.6473,-1.5 1.6474,-2.6 1.6474,-1.4 1.6473,1.1 1.6474,1.3 1.6474,0.4 1.6473,-2.5 1.6474,1.2 1.6474,-0.5 1.6473,2.4 1.6474,1 1.6474,0.5 1.6473,1 1.6474,-1 1.6474,-0.4 1.6473,-0.1 1.0305,-0.1"
         zIndex="1"
         id="path76"
         inkscape:connector-curvature="0"
         style="fill:none;stroke:#4572a7;stroke-width:2" />
    </g>
  </g>
  <g
     class="highcharts-legend"
     zIndex="7"
     id="g82"
     transform="translate(0,-11)">
    <g
       zIndex="1"
       clip-path="url(#highcharts-1)"
       id="g84">
      <g
         id="g86" />
    </g>
  </g>
  <g
     class="highcharts-axis-labels"
     zIndex="7"
     id="g88"
     transform="translate(0,-21)">
    <text
       x="271.91925"
       y="535"
       style="color:#666666;font-size:21px;line-height:14px;font-family:'Lucida Grande', 'Lucida Sans Unicode', Verdana, Arial, Helvetica, sans-serif;text-anchor:middle;visibility:visible;fill:#666666"
       visibility="visible"
       id="text90">
      <tspan
         x="271.91925"
         id="tspan92">May '14</tspan>
    </text>
    <text
       x="474.54538"
       y="535"
       style="color:#666666;font-size:21px;line-height:14px;font-family:'Lucida Grande', 'Lucida Sans Unicode', Verdana, Arial, Helvetica, sans-serif;text-anchor:middle;visibility:visible;fill:#666666"
       visibility="visible"
       id="text94">
      <tspan
         x="474.54538"
         id="tspan96">Sep '14</tspan>
    </text>
    <text
       x="675.52411"
       y="535"
       style="color:#666666;font-size:21px;line-height:14px;font-family:'Lucida Grande', 'Lucida Sans Unicode', Verdana, Arial, Helvetica, sans-serif;text-anchor:middle;visibility:visible;fill:#666666"
       visibility="visible"
       id="text98">
      <tspan
         x="675.52411"
         id="tspan100">Jan '15</tspan>
    </text>
    <text
       x="873.20813"
       y="535"
       style="color:#666666;font-size:21px;line-height:14px;font-family:'Lucida Grande', 'Lucida Sans Unicode', Verdana, Arial, Helvetica, sans-serif;text-anchor:middle;visibility:visible;fill:#666666"
       visibility="visible"
       id="text102">
      <tspan
         x="873.20813"
         id="tspan104">May '15</tspan>
    </text>
    <text
       x="1075.8342"
       y="535"
       style="color:#666666;font-size:21px;line-height:14px;font-family:'Lucida Grande', 'Lucida Sans Unicode', Verdana, Arial, Helvetica, sans-serif;text-anchor:middle;visibility:visible;fill:#666666"
       visibility="visible"
       id="text106">
      <tspan
         x="1075.8342"
         id="tspan108">Sep '15</tspan>
    </text>
    <text
       x="1276.813"
       y="535"
       style="color:#666666;font-size:21px;line-height:14px;font-family:'Lucida Grande', 'Lucida Sans Unicode', Verdana, Arial, Helvetica, sans-serif;text-anchor:middle;visibility:visible;fill:#666666"
       visibility="visible"
       id="text110">
      <tspan
         x="1276.813"
         id="tspan112">Jan '16</tspan>
    </text>
    <text
       x="171.4299"
       y="535"
       style="color:#666666;font-size:21px;line-height:14px;font-family:'Lucida Grande', 'Lucida Sans Unicode', Verdana, Arial, Helvetica, sans-serif;text-anchor:middle;visibility:visible;fill:#666666"
       visibility="visible"
       id="text114">
      <tspan
         x="171.4299"
         id="tspan116">Mar '14</tspan>
    </text>
    <text
       x="372.40863"
       y="535"
       style="color:#666666;font-size:21px;line-height:14px;font-family:'Lucida Grande', 'Lucida Sans Unicode', Verdana, Arial, Helvetica, sans-serif;text-anchor:middle;visibility:visible;fill:#666666"
       visibility="visible"
       id="text118">
      <tspan
         x="372.40863"
         id="tspan120">Jul '14</tspan>
    </text>
    <text
       x="575.03473"
       y="535"
       style="color:#666666;font-size:21px;line-height:14px;font-family:'Lucida Grande', 'Lucida Sans Unicode', Verdana, Arial, Helvetica, sans-serif;text-anchor:middle;visibility:visible;fill:#666666"
       visibility="visible"
       id="text122">
      <tspan
         x="575.03473"
         id="tspan124">Nov '14</tspan>
    </text>
    <text
       x="772.71875"
       y="535"
       style="color:#666666;font-size:21px;line-height:14px;font-family:'Lucida Grande', 'Lucida Sans Unicode', Verdana, Arial, Helvetica, sans-serif;text-anchor:middle;visibility:visible;fill:#666666"
       visibility="visible"
       id="text126">
      <tspan
         x="772.71875"
         id="tspan128">Mar '15</tspan>
    </text>
    <text
       x="973.69745"
       y="535"
       style="color:#666666;font-size:21px;line-height:14px;font-family:'Lucida Grande', 'Lucida Sans Unicode', Verdana, Arial, Helvetica, sans-serif;text-anchor:middle;visibility:visible;fill:#666666"
       visibility="visible"
       id="text130">
      <tspan
         x="973.69745"
         id="tspan132">Jul '15</tspan>
    </text>
    <text
       x="1176.3236"
       y="535"
       style="color:#666666;font-size:21px;line-height:14px;font-family:'Lucida Grande', 'Lucida Sans Unicode', Verdana, Arial, Helvetica, sans-serif;text-anchor:middle;visibility:visible;fill:#666666"
       visibility="visible"
       id="text134">
      <tspan
         x="1176.3236"
         id="tspan136">Nov '15</tspan>
    </text>
  </g>
  <g
     class="highcharts-axis-labels"
     zIndex="7"
     id="g138"
     transform="translate(0,-11)">
    <text
       x="67.036926"
       y="498.70056"
       style="color:#666666;font-size:21px;line-height:14px;font-family:'Lucida Grande', 'Lucida Sans Unicode', Verdana, Arial, Helvetica, sans-serif;text-anchor:end;visibility:hidden;fill:#666666"
       visibility="hidden"
       id="text140">
      <tspan
         x="67.036926"
         id="tspan142">0.1</tspan>
    </text>
    <text
       x="67"
       y="338.7316"
       style="color:#666666;font-size:21px;line-height:14px;font-family:'Lucida Grande', 'Lucida Sans Unicode', Verdana, Arial, Helvetica, sans-serif;text-anchor:end;visibility:visible;fill:#666666"
       visibility="visible"
       id="text144">
      <tspan
         x="67"
         id="tspan146">0.2</tspan>
    </text>
    <text
       x="67"
       y="179.86319"
       style="color:#666666;font-size:21px;line-height:14px;font-family:'Lucida Grande', 'Lucida Sans Unicode', Verdana, Arial, Helvetica, sans-serif;text-anchor:end;visibility:visible;fill:#666666"
       visibility="visible"
       id="text148">
      <tspan
         x="67"
         id="tspan150">0.4</tspan>
    </text>
    <text
       x="67"
       y="86.931122"
       style="color:#666666;font-size:21px;line-height:14px;font-family:'Lucida Grande', 'Lucida Sans Unicode', Verdana, Arial, Helvetica, sans-serif;text-anchor:end;visibility:visible;fill:#666666"
       visibility="visible"
       id="text152">
      <tspan
         x="67"
         id="tspan154">0.6</tspan>
    </text>
    <text
       x="67"
       y="245.79953"
       style="color:#666666;font-size:21px;line-height:14px;font-family:'Lucida Grande', 'Lucida Sans Unicode', Verdana, Arial, Helvetica, sans-serif;text-anchor:end;visibility:visible;fill:#666666"
       visibility="visible"
       id="text156">
      <tspan
         x="67"
         id="tspan158">0.3</tspan>
    </text>
    <text
       x="67"
       y="128.71898"
       style="color:#666666;font-size:21px;line-height:14px;font-family:'Lucida Grande', 'Lucida Sans Unicode', Verdana, Arial, Helvetica, sans-serif;text-anchor:end;visibility:visible;fill:#666666"
       visibility="visible"
       id="text160">
      <tspan
         x="67"
         id="tspan162">0.5</tspan>
    </text>
    <text
       x="67"
       y="51.600014"
       style="color:#666666;font-size:21px;line-height:14px;font-family:'Lucida Grande', 'Lucida Sans Unicode', Verdana, Arial, Helvetica, sans-serif;text-anchor:end;visibility:visible;fill:#666666"
       visibility="visible"
       id="text164">
      <tspan
         x="67"
         id="tspan166">0.7</tspan>
    </text>
  </g>
  <g
     class="highcharts-tracker"
     zIndex="9"
     id="g184"
     transform="translate(0,-21)">
    <g
       visibility="visible"
       zIndex="1"
       transform="translate(75,55)"
       id="g186"
       style="visibility:visible">
      <path
         d="m 2.0196078,348.9 10.0000002,0 1.647367,4.6 1.647366,22.8 1.647367,-2.2 1.647367,6.5 1.647366,2.9 1.647367,-53.6 1.647367,2.5 1.647366,40.7 1.647367,-54.6 1.647367,36.8 1.647366,16.2 1.647367,-36.4 1.647367,-24.9 1.647367,27.3 1.647366,-7 1.647367,8 1.647367,-4.2 1.647366,8.2 1.647367,-14.5 1.647367,-2.6 1.647366,4.8 1.647367,-1.6 1.647367,7 1.647367,5.1 1.647366,-2.5 1.647367,-1.3 1.647367,-6 1.647366,-0.3 1.647367,-0.6 1.647367,-3.3 1.647366,-1.7 1.647367,-2.3 1.647367,-3.4 1.647367,-1.9 1.647366,-4.9 1.647367,-1.5 1.647367,-1.9 1.647366,-2.4 1.647367,1.9 1.647367,-1 1.647366,-3.9 1.647367,-0.8 1.647367,-0.9 1.647366,-2.7 1.647367,-0.7 1.647367,-0.7 1.647367,-1.4 1.647366,-4.7 1.647367,-1.4 1.647367,-0.7 1.647366,-0.8 1.647367,-3.1 1.647367,-2.3 1.647367,-5.6 1.64737,-7.7 1.64736,-4 1.64737,-1.6 1.64737,-0.8 1.64736,0.3 1.64737,0.7 1.64737,-1.4 1.64736,-1.8 1.64737,-1.2 1.64737,-2.3 1.64736,-0.8 1.64737,0.4 1.64737,1.5 1.64736,0.5 1.64737,-1.3 1.64737,-1.1 1.64736,0.4 1.64737,-1.3 1.64737,-0.1 1.64736,2.9 1.64737,0.4 1.64737,-2.2 1.64736,-1 1.64737,1.3 1.64737,0.5 1.64736,1.2 1.64737,-0.3 1.64737,2.1 1.64736,0.8 1.64737,3.3 1.64737,7 1.64736,3.4 1.64737,2.4 1.64737,1 1.64736,-0.6 1.64737,-1.9 1.64737,-0.6 1.64736,0.5 1.64737,0.1 1.64737,2.2 1.64736,5 1.64737,-0.3 1.64737,-1.7 1.64736,-3.9 1.64737,-1.3 1.64737,0.2 1.64736,1 1.64737,2.2 1.64737,1.9 1.64736,-3.9 1.64737,-1.3 1.64737,0.1 1.64736,-0.9 1.64737,2.1 1.64737,1.1 1.64736,-1.3 1.64737,-0.5 1.64737,-1.4 1.64736,-0.2 1.64737,0.3 1.64737,-1.1 1.64736,-0.5 1.64737,-2.8 1.64737,-0.4 1.64736,-0.2 1.64737,1 1.64737,0.8 1.64736,1.9 1.64737,2.4 1.64737,-2.2 1.64736,-3.1 1.64737,-1.6 1.64737,-0.8 1.64736,2.6 1.64737,1.5 1.64737,-0.2 1.64737,-0.7 1.64736,-1.8 1.64737,-2.1 1.64737,0.8 1.64736,-1.6 1.64737,2.2 1.64737,1.7 1.64736,-1.3 1.64737,-3.9 1.64737,-0.9 1.64736,-1.9 1.64737,0.6 1.64737,0.1 1.64736,0.3 1.64737,0.1 1.64737,-0.8 1.64736,2.3 1.64737,-1.5 1.64737,-0.8 1.64736,1.4 1.64737,1.1 1.64737,-2.4 1.64736,-1.3 1.64737,-0.1 1.64737,-0.2 1.64736,0.9 1.64737,1.9 1.64737,1.4 1.64736,-0.2 1.64737,-0.1 1.64737,-0.3 1.64736,-0.3 1.64737,1.8 1.64737,2.6 1.64736,3.5 1.64737,-0.5 1.64737,1 1.64736,0.7 1.64737,3.1 1.64737,1.8 1.64736,4.1 1.64737,1.7 1.64737,-3.2 1.64736,-4.8 1.64737,-3.1 1.64737,-2 1.64736,-0.2 1.64737,3.1 1.64737,1.5 1.64736,-1.8 1.64737,-2.3 1.64737,-0.7 1.64736,-0.6 1.64737,0.3 1.64737,1.5 1.64736,0.5 1.64737,-1.4 1.64737,-3.9 1.64736,-1.4 1.64737,-0.6 1.64737,-0.3 1.64736,1.3 1.64737,-0.1 1.64737,-2.5 1.64736,-3.5 1.64737,-1.8 1.64737,-1.9 1.64736,-1.3 1.64737,-0.6 1.64737,-0.3 1.64736,-2.9 1.64737,-1.9 1.64737,2.6 1.64736,2.1 1.64737,1 1.64737,2.7 1.64736,0.5 1.64737,-2.7 1.64737,-3.2 1.64736,-1.6 1.64737,0.1 1.64737,0.9 1.64736,1.1 1.64737,1.4 1.64737,-1.3 1.64736,-1 1.64737,-1.7 1.64737,0.2 1.64736,-0.4 1.64737,-2.6 1.64737,0.6 1.64736,-0.7 1.64737,-0.1 1.64737,-0.5 1.64736,0.5 1.64737,0.7 1.64737,1.2 1.64736,1.2 1.64737,-1.6 1.64737,-1.8 1.64736,0.3 1.64737,0.9 1.64737,-0.1 1.64736,1.8 1.64737,2.5 1.64737,-1.7 1.64736,-2.6 1.64737,0.2 1.64737,2.6 1.64736,1.6 1.64737,1 1.64737,0.5 1.64736,-1.8 1.64737,-4.2 1.64737,-3.9 1.64737,0.5 1.64736,1.9 1.64737,2.8 1.64737,0.4 1.64736,0.4 1.64737,-2.9 1.64737,-0.3 1.64736,-1.1 1.64737,0.5 1.64737,1.6 1.64736,0.9 1.64737,-1.4 1.64737,-2.2 1.64736,-0.3 1.64737,-1.2 1.64737,-0.7 1.64736,-2.6 1.64737,-2.8 1.64737,-3.1 1.64736,-3.6 1.64737,-1.8 1.64737,-0.1 1.64736,-1 1.64737,-2.2 1.64737,0.4 1.64736,-1.4 1.64737,-2 1.64737,-2.2 1.64736,0.9 1.64737,2.2 1.64737,-0.6 1.64736,-1.4 1.64737,-3 1.64737,-3 1.64736,0 1.64737,0.7 1.64737,-2 1.64736,0.1 1.64737,-1.5 1.64737,-3.1 1.64736,-3.2 1.64737,-0.2 1.64737,-1.2 1.64736,0.5 1.64737,0.5 1.64737,-0.7 1.64736,-0.2 1.64737,-0.5 1.64737,-0.8 1.64736,0.3 1.64737,1.4 1.64737,0.9 1.64736,0 1.64737,0 1.64737,-1.7 1.64736,-0.7 1.64737,-1.1 1.64737,-0.5 1.64736,0.5 1.64737,-1.4 1.64737,-1.6 1.64736,-1.6 1.64737,-2 1.64737,-1.3 1.64736,-1.3 1.64737,0.1 1.64737,-0.1 1.64736,-2.7 1.64737,-0.7 1.64737,-0.8 1.64736,-0.4 1.64737,-2.9 1.64737,1.1 1.64736,-1 1.64737,-0.9 1.64737,-1.6 1.64736,-1 1.64737,-0.5 1.64737,0.5 1.64736,-0.2 1.64737,-1.4 1.64737,-3.5 1.64736,-2.4 1.64737,-3.3 1.64737,-1.5 1.64736,-0.9 1.64737,0.5 1.64737,0.1 1.64736,-1.7 1.64737,-0.6 1.64737,0 1.64736,0.1 1.64737,1.3 1.64737,2.1 1.64736,0.2 1.64737,-2.9 1.64737,-2.7 1.64736,-2 1.64737,-2.6 1.64737,-1.1 1.64736,-0.9 1.64737,1.4 1.64737,-3 1.64736,-0.8 1.64737,-0.3 1.64737,3 1.64736,1.9 1.64737,1.6 1.64737,1 1.64736,0.5 1.64737,0.1 1.64737,2.6 1.64737,4.6 1.64736,4.8 1.64737,1.9 1.64737,1.2 1.64736,0.1 1.64737,1.2 1.64737,0.2 1.64736,-0.5 1.64737,-1.8 1.64737,-1.7 1.64736,-0.8 1.64737,-0.8 1.64737,-4.1 1.64736,-0.2 1.64737,0 1.64737,0.9 1.64736,1.5 1.64737,1.4 1.64737,0.7 1.64736,-2.6 1.64737,0.2 1.64737,0 1.64736,-1 1.64737,-3.7 1.64737,-3 1.64736,-5 1.64737,-2.7 1.64737,-0.4 1.64736,1.1 1.64737,-0.8 1.64737,-3 1.64736,-0.2 1.64737,-0.9 1.64737,-1.9 1.64736,0.3 1.64737,-0.3 1.64737,1.8 1.64736,2.4 1.64737,-0.1 1.64737,1 1.64736,-0.2 1.64737,-0.8 1.64737,3 1.64736,-1.3 1.64737,-0.5 1.64737,-1.3 1.64736,-0.9 1.64737,-1.1 1.64737,-0.7 1.64736,2.4 1.64737,1.3 1.64737,-1.7 1.64736,0.6 1.64737,-0.5 1.64737,-0.1 1.64736,3.4 1.64737,0.1 1.64737,-1.2 1.64736,-3.1 1.64737,-1.4 1.64737,-2.2 1.64736,-2.8 1.64737,-1.2 1.64737,-1.6 1.64736,-2.2 1.64737,-1.2 1.64737,-1.6 1.64736,-3.1 1.64737,-1.1 1.64737,-0.1 1.64736,-2 1.64737,-0.3 1.64737,0.1 1.64736,2.7 1.64737,0.5 1.64737,1.3 1.64736,0.6 1.64737,-0.6 1.64737,-0.2 1.64736,-1.3 1.64737,-0.4 1.64737,0.5 1.64736,0.6 1.64737,2.4 1.64737,1.1 1.64736,0.6 1.64737,0.8 1.64737,0.4 1.64736,0.3 1.64737,0.4 1.64737,-0.5 1.64736,-0.4 1.64737,0.5 1.64737,1.8 1.64736,1 1.64737,-0.8 1.64737,-1.1 1.64736,-0.7 1.64737,0.7 1.64737,-0.7 1.64736,1.3 1.64737,1 1.64737,-0.7 1.64736,-1.2 1.64737,-0.3 1.64737,0.3 1.64736,0.1 1.64737,0.4 1.64737,1 1.64736,0.2 1.64737,-0.2 1.64737,-0.1 1.64736,-1.7 1.64737,-4.3 1.64737,-0.3 1.64737,-0.4 1.64736,-1.7 1.64737,-0.7 1.64737,-1.8 1.64736,-1 1.64737,1.7 1.64737,0.9 1.64736,0.2 1.64737,-0.1 1.64737,-0.4 1.64736,0.5 1.64737,0.2 1.64737,1.4 1.64736,-0.2 1.64737,0.1 1.64737,0.2 1.64736,-0.9 1.64737,1.2 1.64737,0.4 1.64736,2.1 1.64737,-0.5 1.64737,1.9 1.64736,0.1 1.64737,-1.2 1.64737,-0.7 1.64736,0.7 1.64737,0.5 1.64737,-0.2 1.64736,2.3 1.64737,-0.9 1.64737,-1.8 1.64736,0.1 1.64737,-1.3 1.64737,1.4 1.64736,-2.1 1.64737,0.3 1.64737,-2 1.64736,-2.6 1.64737,-1.5 1.64737,-1.4 1.64736,-0.1 1.64737,0.6 1.64737,1.4 1.64736,1.2 1.64737,0.7 1.64737,-2.4 1.64736,-0.8 1.64737,-2.3 1.64737,-0.5 1.64736,-1.1 1.64737,-1.3 1.64737,-4.6 1.64736,-3.2 1.64737,-0.3 1.64737,-1.2 1.64736,-3.2 1.64737,-0.6 1.64737,-2.2 1.64736,-3.1 1.64737,0.2 1.64737,1.5 1.64736,0 1.64737,-0.6 1.64737,0.3 1.64736,1.3 1.64737,-3.6 1.64737,-2.4 1.64736,-0.4 1.64737,0.3 1.64737,0.8 1.64736,0.6 1.64737,-1.9 1.64737,-7.3 1.64736,-6.2 1.64737,-5.1 1.64737,-2.6 1.64736,-4.1 1.64737,-4.2 1.64737,-5 1.64736,-4.5 1.64737,-3 1.64737,-1.9 1.64736,-1.5 1.64737,-2.5 1.64737,-2.2 1.64736,0.2 1.64737,-0.4 1.64737,0.1 1.64736,2.7 1.64737,0.4 1.64737,-0.4 1.64736,0.5 1.64737,-0.9 1.64737,-1.3 1.64736,-4.7 1.64737,-2.7 1.64737,-2 1.64736,-3.1 1.64737,0.2 1.64737,-0.6 1.64736,-4.3 1.64737,-4.6 1.64737,-0.2 1.64736,1.8 1.64737,4.1 1.64737,4.1 1.64736,3.8 1.64737,4.8 1.64737,3.2 1.64736,3.7 1.64737,3.6 1.64737,3.2 1.64736,4.8 1.64737,3 1.64737,2.8 1.64737,1 1.64736,1.1 1.64737,1.9 1.64737,-0.1 1.64736,-0.5 1.64737,-0.8 1.64737,-1.4 1.64736,2 1.64737,1.5 1.64737,5.9 1.64736,6.5 1.64737,7 1.64734,5.7 1.6474,-1.2 1.6474,-3.5 1.6473,2.1 1.6474,8.3 1.6474,5.4 1.6473,4 1.6474,-2 1.6474,-4.8 1.6473,-5.1 1.6474,-5.7 1.6474,-2.2 1.6473,-4.4 1.6474,-3.1 1.6474,-4.1 1.6473,-5.1 1.6474,-4.2 1.6474,-3.4 1.6473,-2.6 1.6474,-1.1 1.6474,-1.1 1.6473,-2.3 1.6474,-1.4 1.6474,-1 1.6473,0.2 1.6474,-0.4 1.6474,-0.6 1.6473,0.1 1.6474,-2.3 1.6474,-1.2 1.6473,-1.7 1.6474,0.8 1.6474,1.6 1.6473,2.2 1.6474,-0.4 1.6474,0.9 1.6473,-1.4 1.6474,-2.7 1.6474,-0.7 1.6473,1.8 1.6474,1.5 1.6474,0.9 1.6473,2 1.6474,0.8 1.6474,3 1.6473,1.8 1.6474,2.5 1.6474,0.5 1.6473,1.5 1.6474,-0.8 1.6474,-2 1.6473,-1.3 1.6474,-0.3 1.6474,-0.3 1.6473,-1.4 1.6474,-0.9 1.6474,-1 1.6473,-1.5 1.6474,-0.7 1.6474,-2.3 1.6473,-0.3 1.6474,-0.9 1.6474,0.2 1.6473,-2.2 1.6474,-4.1 1.6474,-4.8 1.6473,-4 1.6474,0.1 1.6474,2 1.6473,0.2 1.6474,0.3 1.6474,0.4 1.6473,-0.1 1.6474,0.4 1.6474,0 1.6473,0.5 1.6474,0.2 1.6474,2.3 1.6473,-0.4 1.6474,-2 1.6474,0.3 1.6473,1.7 1.6474,0.5 1.6474,1.6 1.6473,0.3 1.6474,-0.2 1.6474,-0.4 1.6473,-0.5 1.6474,0.1 1.6474,-0.2 1.6473,1.3 1.6474,-1.9 1.6474,-0.1 1.6473,-0.9 1.6474,0 1.6474,2.8 1.6473,2 1.6474,1.3 1.6474,-1.4 1.6473,-1.4 1.6474,-0.5 1.6474,-0.3 1.6473,-0.4 1.6474,-1.9 1.6474,-2.1 1.6473,-1.9 1.6474,-1 1.6474,-2.6 1.6473,-1.6 1.6474,0.4 1.6474,-1.1 1.6473,-0.5 1.6474,-3.2 1.6474,-4.8 1.6473,-1.5 1.6474,-2.6 1.6474,-1.4 1.6473,1.1 1.6474,1.3 1.6474,0.4 1.6473,-2.5 1.6474,1.2 1.6474,-0.5 1.6473,2.4 1.6474,1 1.6474,0.5 1.6473,1 1.6474,-1 1.6474,-0.4 1.6473,-0.1 1.0305,-0.1 10,0"
         isTracker="true"
         visibility="visible"
         style="visibility:visible;fill:none;stroke:#c0c0c0;stroke-width:22;stroke-linejoin:bevel;stroke-opacity:0.00000102"
         id="path188"
         inkscape:connector-curvature="0" />
    </g>
  </g>
</svg>
