<svg xmlns="http://www.w3.org/2000/svg" height="160" width="360"><path d="M-19.113-46.014h398v319h-398z" fill="none"/><path d="M189.887 109.486l-4.451-45.784a46 46 0 0 1 4.45-.22v46z" fill="#04d215"/><path d="M187.887 63.986l-1-20h8" stroke-opacity=".2" stroke="#000" fill="none"/><path d="M189.887 109.486L179.79 64.608a46 46 0 0 1 5.646-.906l4.45 45.79z" fill="#b0de09"/><path d="M182.887 64.986l-3-58h-8" stroke-opacity=".2" stroke="#000" fill="none"/><path d="M189.887 109.486l-17.965-42.347a46 46 0 0 1 7.867-2.531l10.09 44.88z" fill="#f8ff01"/><path d="M176.887 66.986l-7-40h-8" stroke-opacity=".2" stroke="#000" fill="none"/><path d="M189.887 109.486l-26.6-37.528a46 46 0 0 1 8.636-4.819l17.96 42.35z" fill="#fcd202"/><path d="M167.887 69.986l-10-23h-8" stroke-opacity=".2" stroke="#000" fill="none"/><path d="M189.887 109.486l-41.43-19.99a46 46 0 0 1 14.83-17.54l26.6 37.53z" fill="#ff9e01"/><path d="M155.887 80.986l-16-13h-8" stroke-opacity=".2" stroke="#000" fill="none"/><g><path d="M189.887 109.486l-28.2 36.342a46 46 0 0 1-13.23-56.33l41.43 19.99z" fill="#f60"/><path d="M145.887 119.986l-19 5h-8" stroke-opacity=".2" stroke="#000" fill="none"/></g><g><path d="M189.887 109.486v-46a46 46 0 1 1-28.2 82.342l28.2-36.34z" fill="#ff0f00"/><path d="M233.887 124.986l19 6h8" stroke-opacity=".2" stroke="#000" fill="none"/></g><g font-size="11" font-family="Verdana"><text transform="translate(264.387 130.486)" y="6"><tspan y="6" x="0">OKCoin: 60.50%</tspan></text><text transform="translate(114.387 124.486)" y="6" text-anchor="end"><tspan y="6" x="0">BTC China: 21.65%</tspan></text><text transform="translate(127.387 67.486)" y="6" text-anchor="end"><tspan y="6" x="0">Bitfinex: 8.03%</tspan></text><text transform="translate(145.387 46.486)" y="6" text-anchor="end"><tspan y="6" x="0">Coinbase: 3.43%</tspan></text><text transform="translate(157.387 26.486)" y="6" text-anchor="end"><tspan y="6" x="0">Bitstamp: 2.86%</tspan></text><text transform="translate(167.387 6.486)" y="6" text-anchor="end"><tspan y="6" x="0">BTC-E: 1.98%</tspan></text><text transform="translate(198.387 43.486)" y="6"><tspan y="6" x="0">Kraken: 1.54%</tspan></text></g></svg>