<svg version="1.1" style="position: absolute; width: 480px; height: 104px;"><desc>JavaScript chart by amCharts 3.18.3</desc><g transform="translate(10,0)"><path cs="100,100" d="M0.5,0.5 L459.5,0.5 L459.5,93.5 L0.5,93.5 Z" fill="#FFFFFF" stroke="#000000" fill-opacity="0" stroke-width="1" stroke-opacity="0"></path><g transform="translate(17,11)"><g cursor="pointer" transform="translate(0,0)"><circle r="8" cx="0" cy="0" fill="#FF0F00" stroke="#FF0F00" fill-opacity="1" stroke-width="1" stroke-opacity="1" transform="translate(8,8)"></circle><g transform="translate(8,8)" visibility="hidden"><path cs="100,100" d="M-5.5,-5.5 L6.5,6.5" fill="none" stroke="#FFFFFF" stroke-width="3"></path><path cs="100,100" d="M-5.5,6.5 L6.5,-5.5" fill="none" stroke="#FFFFFF" stroke-width="3"></path></g><text y="6" fill="#141414" font-family="Verdana" font-size="11px" opacity="1" text-anchor="start" transform="translate(21,7)"><tspan y="6" x="0">F2Pool</tspan></text><text y="6" fill="#141414" font-family="Verdana" font-size="11px" opacity="1" text-anchor="end" transform="translate(132,7)">5,882</text><rect x="16" y="0" width="116" height="18" rx="0" ry="0" stroke-width="0" stroke="none" fill="#fff" fill-opacity="0.005"></rect></g><g cursor="pointer" transform="translate(147,0)"><circle r="8" cx="0" cy="0" fill="#FF6600" stroke="#FF6600" fill-opacity="1" stroke-width="1" stroke-opacity="1" transform="translate(8,8)"></circle><g transform="translate(8,8)" visibility="hidden"><path cs="100,100" d="M-5.5,-5.5 L6.5,6.5" fill="none" stroke="#FFFFFF" stroke-width="3"></path><path cs="100,100" d="M-5.5,6.5 L6.5,-5.5" fill="none" stroke="#FFFFFF" stroke-width="3"></path></g><text y="6" fill="#141414" font-family="Verdana" font-size="11px" opacity="1" text-anchor="start" transform="translate(21,7)"><tspan y="6" x="0">AntPool</tspan></text><text y="6" fill="#141414" font-family="Verdana" font-size="11px" opacity="1" text-anchor="end" transform="translate(132,7)">4,982</text><rect x="16" y="0" width="116" height="18" rx="0" ry="0" stroke-width="0" stroke="none" fill="#fff" fill-opacity="0.005"></rect></g><g cursor="pointer" transform="translate(294,0)"><circle r="8" cx="0" cy="0" fill="#FF9E01" stroke="#FF9E01" fill-opacity="1" stroke-width="1" stroke-opacity="1" transform="translate(8,8)"></circle><g transform="translate(8,8)" visibility="hidden"><path cs="100,100" d="M-5.5,-5.5 L6.5,6.5" fill="none" stroke="#FFFFFF" stroke-width="3"></path><path cs="100,100" d="M-5.5,6.5 L6.5,-5.5" fill="none" stroke="#FFFFFF" stroke-width="3"></path></g><text y="6" fill="#141414" font-family="Verdana" font-size="11px" opacity="1" text-anchor="start" transform="translate(21,7)"><tspan y="6" x="0">BitFury</tspan></text><text y="6" fill="#141414" font-family="Verdana" font-size="11px" opacity="1" text-anchor="end" transform="translate(132,7)">4,189</text><rect x="16" y="0" width="116" height="18" rx="0" ry="0" stroke-width="0" stroke="none" fill="#fff" fill-opacity="0.005"></rect></g><g cursor="pointer" transform="translate(0,28)"><circle r="8" cx="0" cy="0" fill="#FCD202" stroke="#FCD202" fill-opacity="1" stroke-width="1" stroke-opacity="1" transform="translate(8,8)"></circle><g transform="translate(8,8)" visibility="hidden"><path cs="100,100" d="M-5.5,-5.5 L6.5,6.5" fill="none" stroke="#FFFFFF" stroke-width="3"></path><path cs="100,100" d="M-5.5,6.5 L6.5,-5.5" fill="none" stroke="#FFFFFF" stroke-width="3"></path></g><text y="6" fill="#141414" font-family="Verdana" font-size="11px" opacity="1" text-anchor="start" transform="translate(21,7)"><tspan y="6" x="0">BTCC Pool</tspan></text><text y="6" fill="#141414" font-family="Verdana" font-size="11px" opacity="1" text-anchor="end" transform="translate(132,7)">3,580</text><rect x="16" y="0" width="116" height="18" rx="0" ry="0" stroke-width="0" stroke="none" fill="#fff" fill-opacity="0.005"></rect></g><g cursor="pointer" transform="translate(147,28)"><circle r="8" cx="0" cy="0" fill="#F8FF01" stroke="#F8FF01" fill-opacity="1" stroke-width="1" stroke-opacity="1" transform="translate(8,8)"></circle><g transform="translate(8,8)" visibility="hidden"><path cs="100,100" d="M-5.5,-5.5 L6.5,6.5" fill="none" stroke="#FFFFFF" stroke-width="3"></path><path cs="100,100" d="M-5.5,6.5 L6.5,-5.5" fill="none" stroke="#FFFFFF" stroke-width="3"></path></g><text y="6" fill="#141414" font-family="Verdana" font-size="11px" opacity="1" text-anchor="start" transform="translate(21,7)"><tspan y="6" x="0">BW.COM</tspan></text><text y="6" fill="#141414" font-family="Verdana" font-size="11px" opacity="1" text-anchor="end" transform="translate(132,7)">1,840</text><rect x="16" y="0" width="116" height="18" rx="0" ry="0" stroke-width="0" stroke="none" fill="#fff" fill-opacity="0.005"></rect></g><g cursor="pointer" transform="translate(294,28)"><circle r="8" cx="0" cy="0" fill="#B0DE09" stroke="#B0DE09" fill-opacity="1" stroke-width="1" stroke-opacity="1" transform="translate(8,8)"></circle><g transform="translate(8,8)" visibility="hidden"><path cs="100,100" d="M-5.5,-5.5 L6.5,6.5" fill="none" stroke="#FFFFFF" stroke-width="3"></path><path cs="100,100" d="M-5.5,6.5 L6.5,-5.5" fill="none" stroke="#FFFFFF" stroke-width="3"></path></g><text y="6" fill="#141414" font-family="Verdana" font-size="11px" opacity="1" text-anchor="start" transform="translate(21,7)"><tspan y="6" x="0">KnCMiner</tspan></text><text y="6" fill="#141414" font-family="Verdana" font-size="11px" opacity="1" text-anchor="end" transform="translate(132,7)">1,689</text><rect x="16" y="0" width="116" height="18" rx="0" ry="0" stroke-width="0" stroke="none" fill="#fff" fill-opacity="0.005"></rect></g><g cursor="pointer" transform="translate(0,56)"><circle r="8" cx="0" cy="0" fill="#04D215" stroke="#04D215" fill-opacity="1" stroke-width="1" stroke-opacity="1" transform="translate(8,8)"></circle><g transform="translate(8,8)" visibility="hidden"><path cs="100,100" d="M-5.5,-5.5 L6.5,6.5" fill="none" stroke="#FFFFFF" stroke-width="3"></path><path cs="100,100" d="M-5.5,6.5 L6.5,-5.5" fill="none" stroke="#FFFFFF" stroke-width="3"></path></g><text y="6" fill="#141414" font-family="Verdana" font-size="11px" opacity="1" text-anchor="start" transform="translate(21,7)"><tspan y="6" x="0">Slush</tspan></text><text y="6" fill="#141414" font-family="Verdana" font-size="11px" opacity="1" text-anchor="end" transform="translate(132,7)">1,585</text><rect x="16" y="0" width="116" height="18" rx="0" ry="0" stroke-width="0" stroke="none" fill="#fff" fill-opacity="0.005"></rect></g><g cursor="pointer" transform="translate(147,56)"><circle r="8" cx="0" cy="0" fill="#0D8ECF" stroke="#0D8ECF" fill-opacity="1" stroke-width="1" stroke-opacity="1" transform="translate(8,8)"></circle><g transform="translate(8,8)" visibility="hidden"><path cs="100,100" d="M-5.5,-5.5 L6.5,6.5" fill="none" stroke="#FFFFFF" stroke-width="3"></path><path cs="100,100" d="M-5.5,6.5 L6.5,-5.5" fill="none" stroke="#FFFFFF" stroke-width="3"></path></g><text y="6" fill="#141414" font-family="Verdana" font-size="11px" opacity="1" text-anchor="start" transform="translate(21,7)"><tspan y="6" x="0">21 Inc.</tspan></text><text y="6" fill="#141414" font-family="Verdana" font-size="11px" opacity="1" text-anchor="end" transform="translate(132,7)">981</text><rect x="16" y="0" width="116" height="18" rx="0" ry="0" stroke-width="0" stroke="none" fill="#fff" fill-opacity="0.005"></rect></g><g cursor="pointer" transform="translate(294,56)"><circle r="8" cx="0" cy="0" fill="#0D52D1" stroke="#0D52D1" fill-opacity="1" stroke-width="1" stroke-opacity="1" transform="translate(8,8)"></circle><g transform="translate(8,8)" visibility="hidden"><path cs="100,100" d="M-5.5,-5.5 L6.5,6.5" fill="none" stroke="#FFFFFF" stroke-width="3"></path><path cs="100,100" d="M-5.5,6.5 L6.5,-5.5" fill="none" stroke="#FFFFFF" stroke-width="3"></path></g><text y="6" fill="#141414" font-family="Verdana" font-size="11px" opacity="1" text-anchor="start" transform="translate(21,7)"><tspan y="6" x="0">Eligius</tspan></text><text y="6" fill="#141414" font-family="Verdana" font-size="11px" opacity="1" text-anchor="end" transform="translate(132,7)">756</text><rect x="16" y="0" width="116" height="18" rx="0" ry="0" stroke-width="0" stroke="none" fill="#fff" fill-opacity="0.005"></rect></g></g></g></svg>