<svg style="position:absolute;width:480px;height:320px;top:0;left:0"><desc>JavaScript chart by amCharts 3.18.3</desc><path d="M.5.5h479v215H.5z" fill="none"/><path d="M240 108l-8.34-44.22A45 45 0 0 1 240 63v45z" fill="#0D52D1"/><path d="M236.5 63.5l-2-46h-8" fill="none" stroke-opacity=".2" stroke="#000"/><path d="M240 108l-18.688-40.936a45 45 0 0 1 10.349-3.285L240 108z" fill="#0D8ECF"/><path d="M226.5 65.5l-6-30h-8" fill="none" stroke-opacity=".2" stroke="#000"/><path d="M240 108l-32.872-30.731a45 45 0 0 1 14.184-10.205L240 108z" fill="#04D215"/><path d="M214.5 72.5l-12-17h-8" fill="none" stroke-opacity=".2" stroke="#000"/><path d="M240 108l-42.494-14.808a45 45 0 0 1 9.622-15.923L240 108z" fill="#B0DE09"/><path d="M202.5 85.5l-17-10h-8" fill="none" stroke-opacity=".2" stroke="#000"/><path d="M240 108l-44.685 5.313a45 45 0 0 1 2.191-20.12L240 108z" fill="#F8FF01"/><path d="M196.5 103.5l-20-2h-8" fill="none" stroke-opacity=".2" stroke="#000"/><path d="M240 108l-24.275 37.89a45 45 0 0 1-20.41-32.577L240 108z" fill="#FCD202"/><path d="M202.5 132.5l-17 10h-8" fill="none" stroke-opacity=".2" stroke="#000"/><g><path d="M240 108V63a45 45 0 0 1 44.673 39.588L240 108z" fill="#FF0F00"/><path d="M270.5 75.5l13-15h8" fill="none" stroke-opacity=".2" stroke="#000"/></g><g><path d="M240 108l44.673-5.412a45 45 0 0 1-24.573 45.674L240 108z" fill="#F60"/><path d="M279.5 129.5l18 10h8" fill="none" stroke-opacity=".2" stroke="#000"/></g><g><path d="M240 108l20.1 40.262a45 45 0 0 1-44.375-2.371L240 108z" fill="#FF9E01"/><path d="M238.5 153.5l-1 20h-8" fill="none" stroke-opacity=".2" stroke="#000"/></g><g><text y="6" font-family="Verdana" font-size="11" transform="translate(295 60)" pointer-events="none"><tspan y="6" x="0">F2Pool: 23.08%</tspan></text><text y="6" font-family="Verdana" font-size="11" transform="translate(309 139)" pointer-events="none"><tspan y="6" x="0">AntPool: 19.55%</tspan></text><text y="6" font-family="Verdana" font-size="11" text-anchor="end" transform="translate(225 173)" pointer-events="none"><tspan y="6" x="0">BitFury: 16.44%</tspan></text><text y="6" font-family="Verdana" font-size="11" text-anchor="end" transform="translate(173 142)" pointer-events="none"><tspan y="6" x="0">BTCC Pool: 14.05%</tspan></text><text y="6" font-family="Verdana" font-size="11" text-anchor="end" transform="translate(164 101)" pointer-events="none"><tspan y="6" x="0">BW.COM: 7.22%</tspan></text><text y="6" font-family="Verdana" font-size="11" text-anchor="end" transform="translate(173 75)" pointer-events="none"><tspan y="6" x="0">KnCMiner: 6.63%</tspan></text><text y="6" font-family="Verdana" font-size="11" text-anchor="end" transform="translate(190 55)" pointer-events="none"><tspan y="6" x="0">Slush: 6.22%</tspan></text><text y="6" font-family="Verdana" font-size="11" text-anchor="end" transform="translate(208 35)" pointer-events="none"><tspan y="6" x="0">21 Inc.: 3.85%</tspan></text><text y="6" font-family="Verdana" font-size="11" text-anchor="end" transform="translate(222 17)" pointer-events="none"><tspan y="6" x="0">Eligius: 2.97%</tspan></text></g></svg>