<svg xmlns="http://www.w3.org/2000/svg" height="333.63" width="460"><desc>JavaScript chart by amCharts 3.18.3</desc><path d="M239.34 139.76l-10.834-57.447a58.46 58.46 0 0 1 10.834-1.012v58.46z" fill="#0d52d1"/><path d="M234.793 81.95l-2.598-59.758h-10.393" stroke-opacity=".2" stroke="#000" fill="none" stroke-width="1.2991"/><path d="M239.34 139.76l-24.28-53.18a58.46 58.46 0 0 1 13.444-4.266l10.835 57.447z" fill="#0d8ecf"/><path d="M221.802 84.549l-7.794-38.973h-10.393" stroke-opacity=".2" stroke="#000" fill="none" stroke-width="1.2991"/><path d="M239.34 139.76l-42.701-39.922a58.46 58.46 0 0 1 18.426-13.257l24.28 53.18z" fill="#04d215"/><path d="M206.213 93.643l-15.59-22.085h-10.392" stroke-opacity=".2" stroke="#000" fill="none" stroke-width="1.2991"/><path d="M239.34 139.76l-55.199-19.236a58.46 58.46 0 0 1 12.5-20.686l42.7 39.923z" fill="#b0de09"/><path d="M190.624 110.53l-22.085-12.99h-10.393" stroke-opacity=".2" stroke="#000" fill="none" stroke-width="1.2991"/><path d="M239.34 139.76l-58.05 6.903a58.46 58.46 0 0 1 2.847-26.14l55.198 19.242z" fill="#f8ff01"/><path d="M182.83 133.915l-25.983-2.598h-10.393" stroke-opacity=".2" stroke="#000" fill="none" stroke-width="1.2991"/><path d="M239.34 139.76l-31.536 49.225a58.46 58.46 0 0 1-26.514-42.325l58.056-6.898z" fill="#fcd202"/><path d="M190.624 171.589l-22.085 12.99h-10.393" stroke-opacity=".2" stroke="#000" fill="none" stroke-width="1.2991"/><path d="M239.34 139.76V81.302a58.46 58.46 0 0 1 58.035 51.429l-58.031 7.028z" fill="#ff0f00"/><path d="M278.963 97.54l16.888-19.487h10.393" stroke-opacity=".2" stroke="#000" fill="none" stroke-width="1.2991"/><path d="M239.34 139.76l58.035-7.03a58.46 58.46 0 0 1-31.92 59.33l-26.111-52.302z" fill="#f60"/><path d="M290.654 167.691l23.384 12.991h10.393" stroke-opacity=".2" stroke="#000" fill="none" stroke-width="1.2991"/><g><path d="M239.34 139.76l26.112 52.305a58.46 58.46 0 0 1-57.648-3.08l31.542-49.223z" fill="#ff9e01"/><path d="M237.391 198.87l-1.299 25.982H225.7" stroke-opacity=".2" stroke="#000" fill="none" stroke-width="1.2991"/></g><g><text font-size="11" transform="translate(310.78 75.794)" y="6" font-family="'Droid Serif', Georgia, serif" fill="#141414"><tspan y="6" x="0">F2Pool: 23.08%</tspan></text><text font-size="11" transform="translate(329.07 178.322)" y="6" font-family="'Droid Serif', Georgia, serif" fill="#141414"><tspan y="6" x="0">AntPool: 19.55%</tspan></text><text font-size="11" transform="translate(221.74 221.478)" y="6" font-family="'Droid Serif', Georgia, serif" fill="#141414" text-anchor="end"><tspan y="6" x="0">BitFury: 16.44%</tspan></text><text font-size="11" transform="translate(153.91 182.27)" y="6" font-family="'Droid Serif', Georgia, serif" fill="#141414" text-anchor="end"><tspan y="6" x="0">BTCC Pool: 14.05%</tspan></text><text font-size="11" transform="translate(142.27 128.932)" y="6" font-family="'Droid Serif', Georgia, serif" fill="#141414" text-anchor="end"><tspan y="6" x="0">BW.COM: 7.22%</tspan></text><text font-size="11" transform="translate(153.76 95.389)" y="6" font-family="'Droid Serif', Georgia, serif" fill="#141414" text-anchor="end"><tspan y="6" x="0">KnCMiner: 6.63%</tspan></text><text font-size="11" transform="translate(175.85 69.494)" y="6" font-family="'Droid Serif', Georgia, serif" fill="#141414" text-anchor="end"><tspan y="6" x="0">Slush: 6.22%</tspan></text><text font-size="11" transform="translate(199.45 43.302)" y="6" font-family="'Droid Serif', Georgia, serif" fill="#141414" text-anchor="end"><tspan y="6" x="0">21 Inc.: 3.85%</tspan></text><text font-size="11" transform="translate(217.69 18.854)" y="6" font-family="'Droid Serif', Georgia, serif" fill="#141414" text-anchor="end"><tspan y="6" x="0">Eligius: 2.97%</tspan></text></g><path d="M.5 240.13h459v93H.5z" fill="none"/><g cursor="pointer" transform="translate(17 250.63)"><circle transform="translate(8 8)" stroke="#ff0f00" r="8" fill="#ff0f00"/><text font-size="11" transform="translate(21 7)" y="6" font-family="'Droid Serif', Georgia, serif" fill="#141414"><tspan y="6" x="0">F2Pool</tspan></text><text font-size="11" transform="translate(132 7)" y="6" font-family="'Droid Serif', Georgia, serif" fill="#141414" text-anchor="end">5,882</text><rect fill-opacity=".005" rx="0" ry="0" height="18" width="116" x="16" fill="#fff"/></g><g cursor="pointer" transform="translate(164 250.63)"><circle transform="translate(8 8)" stroke="#f60" r="8" fill="#f60"/><text font-size="11" transform="translate(21 7)" y="6" font-family="'Droid Serif', Georgia, serif" fill="#141414"><tspan y="6" x="0">AntPool</tspan></text><text font-size="11" transform="translate(132 7)" y="6" font-family="'Droid Serif', Georgia, serif" fill="#141414" text-anchor="end">4,982</text><rect fill-opacity=".005" rx="0" ry="0" height="18" width="116" x="16" fill="#fff"/></g><circle stroke="#ff9e01" cy="258.63" cx="319" r="8" fill="#ff9e01"/><text font-size="11" y="263.633" x="332" font-family="'Droid Serif', Georgia, serif" fill="#141414"><tspan y="263.633" x="332">BitFury</tspan></text><text font-size="11" y="263.633" x="443" font-family="'Droid Serif', Georgia, serif" fill="#141414" text-anchor="end">4,189</text><rect fill-opacity=".005" rx="0" ry="0" height="18" width="116" y="250.63" x="327" fill="#fff"/><g cursor="pointer" transform="translate(17 278.63)"><circle transform="translate(8 8)" stroke="#fcd202" r="8" fill="#fcd202"/><text font-size="11" transform="translate(21 7)" y="6" font-family="'Droid Serif', Georgia, serif" fill="#141414"><tspan y="6" x="0">BTCC Pool</tspan></text><text font-size="11" transform="translate(132 7)" y="6" font-family="'Droid Serif', Georgia, serif" fill="#141414" text-anchor="end">3,580</text><rect fill-opacity=".005" rx="0" ry="0" height="18" width="116" x="16" fill="#fff"/></g><g cursor="pointer" transform="translate(164 278.63)"><circle transform="translate(8 8)" stroke="#f8ff01" r="8" fill="#f8ff01"/><text font-size="11" transform="translate(21 7)" y="6" font-family="'Droid Serif', Georgia, serif" fill="#141414"><tspan y="6" x="0">BW.COM</tspan></text><text font-size="11" transform="translate(132 7)" y="6" font-family="'Droid Serif', Georgia, serif" fill="#141414" text-anchor="end">1,840</text><rect fill-opacity=".005" rx="0" ry="0" height="18" width="116" x="16" fill="#fff"/></g><g cursor="pointer" transform="translate(311 278.63)"><circle transform="translate(8 8)" stroke="#b0de09" r="8" fill="#b0de09"/><text font-size="11" transform="translate(21 7)" y="6" font-family="'Droid Serif', Georgia, serif" fill="#141414"><tspan y="6" x="0">KnCMiner</tspan></text><text font-size="11" transform="translate(132 7)" y="6" font-family="'Droid Serif', Georgia, serif" fill="#141414" text-anchor="end">1,689</text><rect fill-opacity=".005" rx="0" ry="0" height="18" width="116" x="16" fill="#fff"/></g><g cursor="pointer" transform="translate(17 306.63)"><circle transform="translate(8 8)" stroke="#04d215" r="8" fill="#04d215"/><text font-size="11" transform="translate(21 7)" y="6" font-family="'Droid Serif', Georgia, serif" fill="#141414"><tspan y="6" x="0">Slush</tspan></text><text font-size="11" transform="translate(132 7)" y="6" font-family="'Droid Serif', Georgia, serif" fill="#141414" text-anchor="end">1,585</text><rect fill-opacity=".005" rx="0" ry="0" height="18" width="116" x="16" fill="#fff"/></g><g cursor="pointer" transform="translate(164 306.63)"><circle transform="translate(8 8)" stroke="#0d8ecf" r="8" fill="#0d8ecf"/><text font-size="11" transform="translate(21 7)" y="6" font-family="'Droid Serif', Georgia, serif" fill="#141414"><tspan y="6" x="0">21 Inc.</tspan></text><text font-size="11" transform="translate(132 7)" y="6" font-family="'Droid Serif', Georgia, serif" fill="#141414" text-anchor="end">981</text><rect fill-opacity=".005" rx="0" ry="0" height="18" width="116" x="16" fill="#fff"/></g><g cursor="pointer" transform="translate(311 306.63)"><circle transform="translate(8 8)" stroke="#0d52d1" r="8" fill="#0d52d1"/><text font-size="11" transform="translate(21 7)" y="6" font-family="'Droid Serif', Georgia, serif" fill="#141414"><tspan y="6" x="0">Eligius</tspan></text><text font-size="11" transform="translate(132 7)" y="6" font-family="'Droid Serif', Georgia, serif" fill="#141414" text-anchor="end">756</text><rect fill-opacity=".005" rx="0" ry="0" height="18" width="116" x="16" fill="#fff"/></g></svg>