<svg style="position:absolute;width:480px;height:104px"><desc>JavaScript chart by amCharts 3.18.3</desc><path d="M10.5.5h459v93h-459z" fill="none"/><g cursor="pointer"><g transform="translate(27 11)"><circle r="8" fill="#FF0F00" stroke="#FF0F00" transform="translate(8 8)"/><g visibility="hidden" fill="none" stroke="#FFF" stroke-width="3"><path d="M2.5 2.5l12 12M2.5 14.5l12-12"/></g><text y="6" fill="#141414" font-family="Verdana" font-size="11" transform="translate(21 7)"><tspan y="6" x="0">F2Pool</tspan></text><text y="6" fill="#141414" font-family="Verdana" font-size="11" text-anchor="end" transform="translate(132 7)">5,882</text><rect x="16" width="116" height="18" rx="0" ry="0" fill="#fff" fill-opacity=".005"/></g><g transform="translate(174 11)"><circle r="8" fill="#F60" stroke="#F60" transform="translate(8 8)"/><g visibility="hidden" fill="none" stroke="#FFF" stroke-width="3"><path d="M2.5 2.5l12 12M2.5 14.5l12-12"/></g><text y="6" fill="#141414" font-family="Verdana" font-size="11" transform="translate(21 7)"><tspan y="6" x="0">AntPool</tspan></text><text y="6" fill="#141414" font-family="Verdana" font-size="11" text-anchor="end" transform="translate(132 7)">4,982</text><rect x="16" width="116" height="18" rx="0" ry="0" fill="#fff" fill-opacity=".005"/></g><g transform="translate(321 11)"><circle r="8" fill="#FF9E01" stroke="#FF9E01" transform="translate(8 8)"/><g visibility="hidden" fill="none" stroke="#FFF" stroke-width="3"><path d="M2.5 2.5l12 12M2.5 14.5l12-12"/></g><text y="6" fill="#141414" font-family="Verdana" font-size="11" transform="translate(21 7)"><tspan y="6" x="0">BitFury</tspan></text><text y="6" fill="#141414" font-family="Verdana" font-size="11" text-anchor="end" transform="translate(132 7)">4,189</text><rect x="16" width="116" height="18" rx="0" ry="0" fill="#fff" fill-opacity=".005"/></g><g transform="translate(27 39)"><circle r="8" fill="#FCD202" stroke="#FCD202" transform="translate(8 8)"/><g visibility="hidden" fill="none" stroke="#FFF" stroke-width="3"><path d="M2.5 2.5l12 12M2.5 14.5l12-12"/></g><text y="6" fill="#141414" font-family="Verdana" font-size="11" transform="translate(21 7)"><tspan y="6" x="0">BTCC Pool</tspan></text><text y="6" fill="#141414" font-family="Verdana" font-size="11" text-anchor="end" transform="translate(132 7)">3,580</text><rect x="16" width="116" height="18" rx="0" ry="0" fill="#fff" fill-opacity=".005"/></g><g transform="translate(174 39)"><circle r="8" fill="#F8FF01" stroke="#F8FF01" transform="translate(8 8)"/><g visibility="hidden" fill="none" stroke="#FFF" stroke-width="3"><path d="M2.5 2.5l12 12M2.5 14.5l12-12"/></g><text y="6" fill="#141414" font-family="Verdana" font-size="11" transform="translate(21 7)"><tspan y="6" x="0">BW.COM</tspan></text><text y="6" fill="#141414" font-family="Verdana" font-size="11" text-anchor="end" transform="translate(132 7)">1,840</text><rect x="16" width="116" height="18" rx="0" ry="0" fill="#fff" fill-opacity=".005"/></g><g transform="translate(321 39)"><circle r="8" fill="#B0DE09" stroke="#B0DE09" transform="translate(8 8)"/><g visibility="hidden" fill="none" stroke="#FFF" stroke-width="3"><path d="M2.5 2.5l12 12M2.5 14.5l12-12"/></g><text y="6" fill="#141414" font-family="Verdana" font-size="11" transform="translate(21 7)"><tspan y="6" x="0">KnCMiner</tspan></text><text y="6" fill="#141414" font-family="Verdana" font-size="11" text-anchor="end" transform="translate(132 7)">1,689</text><rect x="16" width="116" height="18" rx="0" ry="0" fill="#fff" fill-opacity=".005"/></g><g transform="translate(27 67)"><circle r="8" fill="#04D215" stroke="#04D215" transform="translate(8 8)"/><g visibility="hidden" fill="none" stroke="#FFF" stroke-width="3"><path d="M2.5 2.5l12 12M2.5 14.5l12-12"/></g><text y="6" fill="#141414" font-family="Verdana" font-size="11" transform="translate(21 7)"><tspan y="6" x="0">Slush</tspan></text><text y="6" fill="#141414" font-family="Verdana" font-size="11" text-anchor="end" transform="translate(132 7)">1,585</text><rect x="16" width="116" height="18" rx="0" ry="0" fill="#fff" fill-opacity=".005"/></g><g transform="translate(174 67)"><circle r="8" fill="#0D8ECF" stroke="#0D8ECF" transform="translate(8 8)"/><g visibility="hidden" fill="none" stroke="#FFF" stroke-width="3"><path d="M2.5 2.5l12 12M2.5 14.5l12-12"/></g><text y="6" fill="#141414" font-family="Verdana" font-size="11" transform="translate(21 7)"><tspan y="6" x="0">21 Inc.</tspan></text><text y="6" fill="#141414" font-family="Verdana" font-size="11" text-anchor="end" transform="translate(132 7)">981</text><rect x="16" width="116" height="18" rx="0" ry="0" fill="#fff" fill-opacity=".005"/></g><g transform="translate(321 67)"><circle r="8" fill="#0D52D1" stroke="#0D52D1" transform="translate(8 8)"/><g visibility="hidden" fill="none" stroke="#FFF" stroke-width="3"><path d="M2.5 2.5l12 12M2.5 14.5l12-12"/></g><text y="6" fill="#141414" font-family="Verdana" font-size="11" transform="translate(21 7)"><tspan y="6" x="0">Eligius</tspan></text><text y="6" fill="#141414" font-family="Verdana" font-size="11" text-anchor="end" transform="translate(132 7)">756</text><rect x="16" width="116" height="18" rx="0" ry="0" fill="#fff" fill-opacity=".005"/></g></g></svg>