<svg xmlns="http://www.w3.org/2000/svg" width="910" height="580"><defs><clipPath id="b"><rect rx="0" ry="0" width="9999" height="400" fill="none" stroke-width="0"/></clipPath><clipPath id="a"><path fill="none" d="M0 0h784v492H0z"/></clipPath></defs><g class="highcharts-grid" fill="none" stroke="silver"><path d="M97 494.5h784M97 415.5h784M97 354.5h784M97 163.5h784M97 452.5h784M97 383.5h784M97 52.5h784M97 544.5h784"/></g><g class="highcharts-axis" fill="none" stroke="#c0d0e0"><path d="M480.5 544v5M671.5 544v5M864.5 544v5M286.5 544v5M383.5 544v5M575.5 544v5M768.5 544v5M190.5 544v5M97 544.5h784"/></g><text x="24" y="301" transform="rotate(-90 20.5 301.5)" color="#6d869f" font-weight="700" font-size="17" font-family="'Lucida Grande','Lucida Sans Unicode',Verdana,Arial,Helvetica,sans-serif" text-anchor="middle" fill="#6d869f" class="highcharts-axis"><tspan x="24">Number of Transactions</tspan></text><g class="highcharts-series-group highcharts-series" transform="translate(97 52)" clip-path="url(#a)"><path d="M7.686 429l1.054 17.5 1.053 5.4 1.053.8 1.054 15 1.053-7.7 1.053-.6 1.054 1.8 1.053.5 1.053-1.2 1.054 2.3h1.053l1.053-2.8 1.054-10.9 1.053-4 1.053-3.9 1.054-6.1 1.053-1.4 1.053-1.5L27.7 431l1.053 3.7 1.053 2.9 1.054 1.7 1.053 3.9 1.053-1 1.054.8 1.053 1.2 1.053-.1 1.054-4 1.053-5.7 1.053-6.2 1.054-4.4 1.053-5.4 1.053-5.2 1.054 1.7 1.053 3.1 1.053 1.7 1.054-2.9h1.053l1.053 1.5 1.054 6.4 1.053-3.3 1.053-2.2 1.054-2.9 1.053 1.9 1.053 2.7 1.054-1.1 1.053-6.8 1.053-9.1L59.3 401l1.053.1 1.053 1.1 1.054-2.1 1.053-.2 1.053-2.3 1.054-1.1 1.053-1.4 1.053-.1 1.054 1.1 1.053-4.2 1.053-1.2 1.054 3.2 1.053 5.4 1.053-1 1.054-2.1 1.053.5 1.053 2.8 1.054 1.5 1.053 1 1.053 10.5 1.054 5.1 1.053 1.9 1.053-3.1 1.054-1.9 1.053 1.1 1.053-1.5 1.054-8.5 1.053-1.4 1.053.7 1.054 2.8 1.053 8.3 1.053.9 1.054 2.5 1.053 4.8 1.053 1.9 1.054 2.3 1.053 2.2 1.053-2.9 1.054 4.9 1.053.6 1.053-3.4 1.054 1.5 1.053-1.1 1.053-.8 1.054 4.9 1.053-1.3 1.053-1.3 1.054-3 1.053-2.6 1.053 1.2 1.054 6.4 1.053-3h1.053l1.054 4.1 1.053 1 1.053-2.4 1.054-.3 1.053-13.2 1.053-1.1 1.054-.6 1.053-2.9 1.053 5.4 1.054 5 1.053 4.2 1.053 11.3 1.054 1.5 1.053-.6 1.053-.3 1.054-8.1 1.053-4.1 1.053-4.6 1.054-4.5 1.053-2.2 1.053-.2 1.054-4 1.053 3.6 1.053.3 1.054-2.6 1.053-.8 1.053 2.6 1.054.6 1.053 5.8 1.053.7 1.054-.7 1.053 1.1 1.053-3.5 1.054-1.5 1.053-2 1.053-3.2 1.054 1.5 1.053-.8 1.053 3.1 1.054 4.6 1.053 1.8 1.053.6 1.054 2.9 1.053-1.8 1.053 3.7 1.054-.5 1.053 1.3 1.053 1.2 1.054 3.4 1.053 3.3 1.053 2.9 1.054 3.1 1.053 3.4 1.053-.1 1.054-3.8 1.053-4 1.053-6 1.054-1.1 1.053-3.4 1.053-.5 1.054 3.3 1.053 4.5 1.053 2.2 1.054 5.7 1.053 1.6 1.053 2.2h1.054l1.053-1.9 1.053-3.4 1.054-1.2 1.053-3.4 1.053-4.1 1.054-2.5 1.053-.6 1.053.5 1.054 5.4 1.053-.7 1.053 1.3 1.054.6 1.053-1.9 1.053-.6 1.054 1.3 1.053-3.7 1.053.2 1.054.1 1.053.3 1.053 1.9 1.054-2.8 1.053-1.6 1.053-2.7 1.054-1 1.053-1.1 1.053 1.6 1.054-.7 1.053 2.4 1.053-.5 1.054.7 1.053 1 1.053 1.3 1.054 1.4 1.053 2.8 1.053-1.8 1.054-3.9 1.053-1.5 1.053.3 1.054-2.2 1.053-5 1.053-8.7 1.054-1.7 1.053.1 1.053-1.8 1.054-3.5 1.053-4.1 1.054-3.3 1.053 2.1 1.053-5.8 1.054-.3 1.053-6.8 1.053-.5 1.054 1.2 1.053 1.9 1.053 1 1.054 3.2 1.053.8 1.053 8.5 1.054 2.5 1.053.9 1.053.9 1.054-.7 1.053 3.6 1.053.4 1.054-2.2 1.053-2.7 1.053.1 1.054 1.4 1.053 1.3 1.053-1 1.054.4 1.053-2.2 1.053.2 1.054-3.2 1.053-4.8 1.053-2.4 1.054 1.8 1.053.4 1.053 2.8 1.054-3.7 1.053-1.3 1.053-5.2 1.054-1.8 1.053-6.5 1.053-2.8 1.054.1 1.053 1.5 1.053 3 1.054 9.9 1.053-.7 1.053 1.2 1.054-.9 1.053-2.6 1.053.5 1.054-2.5 1.053-4.1 1.053 1.6 1.054 1.6 1.053.3 1.053-1.9 1.054-2.4 1.053-1 1.053-.1 1.054-1.1 1.053-2.3 1.053-6.2 1.054 2.4 1.053 1.4 1.053-.1 1.054-1.4 1.053 1.6 1.053 2.6 1.054 6.9 1.053-2 1.053.7 1.054-1.7 1.053.1 1.053-1.3 1.054-2.8 1.053-5.1 1.053-2 1.054-4 1.053-.9 1.053-3.5 1.054-5.3 1.053-6.8 1.053-3.1 1.054-.5 1.053-2.5 1.053-2 1.054-.8 1.053.5 1.053 1.3 1.054-.6 1.053-.7 1.053 1.7 1.054-.2 1.053 1.5 1.053.7 1.054-4.6 1.053.4 1.053.6 1.054-.6 1.053-.1 1.053-.1 1.054.2 1.053 6.8 1.053 1 1.054-1.4 1.053-.8 1.053.6 1.054 2.2 1.053-1.2 1.053 1.2 1.054.2 1.053-1.7 1.053-2.7 1.054-5.3 1.053-8.1 1.053-3.3 1.054-7.7 1.053-2.9 1.053-1 1.054 1.6 1.053 4.5 1.053 4.9 1.054 2.9 1.053 6.7 1.053 5.9 1.054 1.9 1.053 1.6 1.053-5.2 1.054-4.2 1.053-1.4 1.053-7.7 1.054-5.2 1.053-5.1 1.053-2.9 1.054 2.6 1.053-.4 1.053 1.8 1.054 14.2 1.053 9.2 1.053 6 1.054 2.8 1.053 4.7 1.053 7.1 1.054 2.9 1.053 6 1.053-.3 1.054-2.1 1.053-5.4 1.053-6.9 1.054-.9 1.053-4.5 1.053-18.6 1.054-14.3 1.053-9.7 1.053-3.4 1.054-1.8 1.053-4.7 1.053-4.6 1.054-6.4 1.053-2.7 1.053 6.1 1.054 2.7 1.053 1.5 1.053.1 1.054 1.7 1.053 8.3 1.053 10.4 1.054.1 1.053 2 1.053-4.8h1.054l1.053 4.6 1.053 2.7 1.054.4 1.053 2.5 1.053 1.4 1.054 9.8 1.053 2.5h1.053l1.054-.7 1.053 1.4 1.053-1.2 1.054-1.6 1.053-5.6 1.053-4.4 1.054-4 1.053-1.7 1.053-10 1.054-8.4 1.053-1.1 1.053-2.9 1.054 1.8 1.053-2.3 1.053-.8 1.054 4.2 1.053 5.8 1.053-.3 1.054 2.6 1.053-2.3h1.053l1.054-2.2 1.053-2.7 1.053.9 1.054-.1 1.053-2.4 1.053-1.8h1.054l1.053 1.8 1.053 2.8 1.054-1.6 1.053-.1 1.053 2.6 1.054-1.3 1.053.8 1.053-.4 1.054-.1 1.053 2.2 1.053.8 1.054-.6 1.053 3.3h1.053l1.054-2 1.053-2.5 1.053-4.7 1.054.1 1.053-3.3 1.053 3 1.054 3.6 1.053 1.6 1.053-1.2 1.054 4.2 1.053-1.3 1.053 1.7 1.054-3.6 1.053-12.8 1.053-6.6 1.054 1 1.053-1.5 1.053-2.5 1.054.4 1.053-2.4 1.053 6.9 1.054-.8 1.053-3.8 1.053-3.4 1.054 1.8 1.053-1.5 1.053-.6 1.054.9 1.053 5.1 1.053 4.5 1.054 1.2 1.053 1 1.053-3.8 1.054-.2 1.053-3.1 1.053-1.2 1.054-3.1 1.053-.2 1.053-2.7 1.054 2.1 1.053.6 1.053-1.2 1.054-2.5 1.053 2 1.053 1.6 1.054 2.8 1.053 5.7 1.053-.6 1.054 1.3 1.053.2 1.053-1.2 1.054-.8 1.053-1.5 1.053-3.3 1.054-.1 1.053 1.8 1.053 4.6 1.054.2 1.053 2.1 1.053 1.7 1.054 2 1.053 3.1 1.053.3 1.054.5 1.053 2.9 1.053.2 1.054-1 1.053-3 1.053-.2 1.054-.3 1.053-3.8 1.053-8.6 1.054-14.6 1.053-2.9 1.053-4 1.054-9 1.053-5.6 1.053-4.5 1.054 4.3 1.053 10.3 1.054 2.6 1.053 8 1.053 6.4 1.054-2.7 1.053-.5 1.053-5.4 1.054-3.8 1.053-4.1 1.053-9.5 1.054-2.8 1.053-.2 1.053 1.1 1.054-.2 1.053-.6 1.053 3 1.054 3.5 1.053-1.6 1.053 6.5 1.054 3 1.053 3.4 1.053 2 1.054-2.2 1.053-1.9 1.053-6.9 1.054-12 1.053-7 1.053-7.2 1.054-1.7 1.053-1.2 1.053-10.3 1.054-15 1.053-13.3 1.053-13.3 1.054-18.3 1.053-13.1 1.053-22.1 1.054-5.1 1.053 17.2 1.053 17.3 1.054 17.4 1.053 24.7 1.053 14 1.054 20.4 1.053 20.2 1.053-1.2 1.054-8.1 1.053.7 1.053 2.6 1.054 4.7 1.053 15 1.053.4 1.054 2.1 1.053 3.9 1.053-7.6 1.054-8 1.053-18.4 1.053-2.8 1.054-2.2 1.053-4.7 1.053 1.8 1.054.4 1.053 2.7 1.053 18.5 1.054 3.5 1.053 2.6 1.053 5.3 1.054 5 1.053 4.9 1.053 6 1.054-.6 1.053.6 1.053.9 1.054-1.1 1.053-2.6 1.053.6 1.054-3 1.053-.6 1.053-2.5 1.054-3.1 1.053-1.7 1.053-.9 1.054.2 1.053-1.9 1.053-2 1.054.5 1.053-.3 1.053-5.3 1.054-4.1 1.053-6.8 1.053 8.5 1.054-7.6 1.053-4.4 1.053-.3 1.054 4.5 1.053 2.9 1.053 4.8 1.054-22.1 1.053-4.8 1.053-9.7 1.054-12.5 1.053-10.6 1.053-10.5 1.054-28.6 1.053-5.2 1.053 8.1 1.054 7.8 1.053 9.5 1.053 7.2 1.054 8.8 1.053 32.3 1.053 17.5 1.054-.5 1.053-.4 1.053-2 1.054-.8 1.053-1.9 1.053-3.4 1.054-1.6 1.053-4 1.053 1.9 1.054 4.1 1.053-.9 1.053.6 1.054-1.2 1.053 5 1.053 1.4 1.054-1.6 1.053-2.9 1.053 2.7 1.054 1 1.053-5.4 1.053-7.3 1.054-3.1 1.053-4.4 1.053-2.7 1.054-1.2 1.053-6.9 1.053 2 1.054-.7 1.053-.4 1.053-2 1.054 2.9 1.053-1 1.053 1.8 1.054-4.4 1.053-5.1 1.053-3.8 1.054-7.4 1.053-8.6 1.053-8.9 1.054-13.3 1.053-5.4 1.053-.1 1.054-1.4 1.053 4.9 1.053 1.6 1.054 5.6 1.053 9.5 1.053 8.7 1.054 2.1 1.053 1.4 1.053-.9 1.054.4 1.053-1 1.053.6 1.054-.1 1.053.5 1.053-.7 1.054 3 1.053 2.1 1.053 2.2 1.054 4.2 1.053-2.7 1.053-.4 1.054-3.3 1.053-1.1 1.053-7.5 1.054-8.4 1.053-6 1.053-1.3 1.054-1 1.053-6.6 1.053-11.1 1.054-3 1.053-1.6 1.053-9.7 1.054-8.4 1.053-10.1 1.053-2.1 1.054-1.3 1.053-6.8 1.053-6.6h1.054l1.053-1.5 1.053-.6 1.054-1 1.053-1 1.053-.1 1.054.8 1.053.3 1.053-1.4 1.054 5.5 1.053 8.7 1.053 6.7 1.054 11 1.053 7.5 1.053 8.3 1.054 14 1.053 14 1.053 6.8 1.054 3.8 1.053-.8h1.053l1.054 1.1 1.053-3.4.747-15.6" fill="none" stroke="#4572a7" stroke-width="2"/></g><g class="highcharts-axis-labels" color="#666" font-size="16" font-family="'Lucida Grande','Lucida Sans Unicode',Verdana,Arial,Helvetica,sans-serif" text-anchor="middle" fill="#666"><text x="464.979" y="561" style="line-height:14px" transform="translate(16 5)"><tspan x="464.979">Jan &amp;apos;15</tspan></text><text x="849.446" y="561" style="line-height:14px" transform="translate(16 5)"><tspan x="849.446">Jan &amp;apos;16</tspan></text><text x="271.165" y="561" style="line-height:14px" transform="translate(16 5)"><tspan x="271.165">Jul &amp;apos;14</tspan></text><text x="655.633" y="561" style="line-height:14px" transform="translate(16 5)"><tspan x="655.633">Jul &amp;apos;15</tspan></text><text x="175.312" y="561" style="line-height:14px" transform="translate(16 5)"><tspan x="175.312">Apr &amp;apos;14</tspan></text><text x="368.072" y="561" style="line-height:14px" transform="translate(16 5)"><tspan x="368.072">Oct &amp;apos;14</tspan></text><text x="559.779" y="561" style="line-height:14px" transform="translate(16 5)"><tspan x="559.779">Apr &amp;apos;15</tspan></text><text x="752.539" y="561" style="line-height:14px" transform="translate(16 5)"><tspan x="752.539">Oct &amp;apos;15</tspan></text></g><g class="highcharts-axis-labels" color="#666" font-size="16" font-family="'Lucida Grande','Lucida Sans Unicode',Verdana,Arial,Helvetica,sans-serif" text-anchor="end" fill="#666"><text x="89" y="503.536" style="line-height:14px" transform="translate(0 -3)"><tspan x="89">60,000</tspan></text><text x="89" y="424.541" style="line-height:14px" transform="translate(0 -3)"><tspan x="89">80,000</tspan></text><text x="89" y="363.268" style="line-height:14px" transform="translate(0 -3)"><tspan x="89">100,000</tspan></text><text x="89" y="172.937" style="line-height:14px" transform="translate(0 -3)"><tspan x="89">200,000</tspan></text><text x="89.11" y="551.604" style="line-height:14px" visibility="hidden" transform="translate(0 -3)"><tspan x="89.11">50,000</tspan></text><text x="89" y="461.208" style="line-height:14px" transform="translate(0 -3)"><tspan x="89">70,000</tspan></text><text x="89" y="392.199" style="line-height:14px" transform="translate(0 -3)"><tspan x="89">90,000</tspan></text><text x="89" y="61.6" style="line-height:14px" transform="translate(0 -3)"><tspan x="89">300,000</tspan></text></g><path d="M94.686 481h10l1.054 17.5 1.053 5.4 1.053.8 1.054 15 1.053-7.7 1.053-.6 1.054 1.8 1.053.5 1.053-1.2 1.054 2.3h1.053l1.053-2.8 1.054-10.9 1.053-4 1.053-3.9 1.054-6.1 1.053-1.4 1.053-1.5 1.054-1.2 1.053 3.7 1.053 2.9 1.054 1.7 1.053 3.9 1.053-1 1.054.8 1.053 1.2 1.053-.1 1.054-4 1.053-5.7 1.053-6.2 1.054-4.4 1.053-5.4 1.053-5.2 1.054 1.7 1.053 3.1 1.053 1.7 1.054-2.9h1.053l1.053 1.5 1.054 6.4 1.053-3.3 1.053-2.2 1.054-2.9 1.053 1.9 1.053 2.7 1.054-1.1 1.053-6.8 1.053-9.1 1.054-2.9 1.053.1 1.053 1.1 1.054-2.1 1.053-.2 1.053-2.3 1.054-1.1 1.053-1.4 1.053-.1 1.054 1.1 1.053-4.2 1.053-1.2 1.054 3.2 1.053 5.4 1.053-1 1.054-2.1 1.053.5 1.053 2.8 1.054 1.5 1.053 1 1.053 10.5 1.054 5.1 1.053 1.9 1.053-3.1 1.054-1.9 1.053 1.1 1.053-1.5 1.054-8.5 1.053-1.4 1.053.7 1.054 2.8 1.053 8.3 1.053.9 1.054 2.5 1.053 4.8 1.053 1.9 1.054 2.3 1.053 2.2 1.053-2.9 1.054 4.9 1.053.6 1.053-3.4 1.054 1.5 1.053-1.1 1.053-.8 1.054 4.9 1.053-1.3 1.053-1.3 1.054-3 1.053-2.6 1.053 1.2 1.054 6.4 1.053-3h1.053l1.054 4.1 1.053 1 1.053-2.4 1.054-.3 1.053-13.2 1.053-1.1 1.054-.6 1.053-2.9 1.053 5.4 1.054 5 1.053 4.2 1.053 11.3 1.054 1.5 1.053-.6 1.053-.3 1.054-8.1 1.053-4.1 1.053-4.6 1.054-4.5 1.053-2.2 1.053-.2 1.054-4 1.053 3.6 1.053.3 1.054-2.6 1.053-.8 1.053 2.6 1.054.6 1.053 5.8 1.053.7 1.054-.7 1.053 1.1 1.053-3.5 1.054-1.5 1.053-2 1.053-3.2 1.054 1.5 1.053-.8 1.053 3.1 1.054 4.6 1.053 1.8 1.053.6 1.054 2.9 1.053-1.8 1.053 3.7 1.054-.5 1.053 1.3 1.053 1.2 1.054 3.4 1.053 3.3 1.053 2.9 1.054 3.1 1.053 3.4 1.053-.1 1.054-3.8 1.053-4 1.053-6 1.054-1.1 1.053-3.4 1.053-.5 1.054 3.3 1.053 4.5 1.053 2.2 1.054 5.7 1.053 1.6 1.053 2.2h1.054l1.053-1.9 1.053-3.4 1.054-1.2 1.053-3.4 1.053-4.1 1.054-2.5 1.053-.6 1.053.5 1.054 5.4 1.053-.7 1.053 1.3 1.054.6 1.053-1.9 1.053-.6 1.054 1.3 1.053-3.7 1.053.2 1.054.1 1.053.3 1.053 1.9 1.054-2.8 1.053-1.6 1.053-2.7 1.054-1 1.053-1.1 1.053 1.6 1.054-.7 1.053 2.4 1.053-.5 1.054.7 1.053 1 1.053 1.3 1.054 1.4 1.053 2.8 1.053-1.8 1.054-3.9 1.053-1.5 1.054.3 1.053-2.2 1.053-5 1.054-8.7 1.053-1.7 1.053.1 1.054-1.8 1.053-3.5 1.053-4.1 1.054-3.3 1.053 2.1 1.053-5.8 1.054-.3 1.053-6.8 1.053-.5 1.054 1.2 1.053 1.9 1.053 1 1.054 3.2 1.053.8 1.053 8.5 1.054 2.5 1.053.9 1.053.9 1.054-.7 1.053 3.6 1.053.4 1.054-2.2 1.053-2.7 1.053.1 1.054 1.4 1.053 1.3 1.053-1 1.054.4 1.053-2.2 1.053.2 1.054-3.2 1.053-4.8 1.053-2.4 1.054 1.8 1.053.4 1.053 2.8 1.054-3.7 1.053-1.3 1.053-5.2 1.054-1.8 1.053-6.5 1.053-2.8 1.054.1 1.053 1.5 1.053 3 1.054 9.9 1.053-.7 1.053 1.2 1.054-.9 1.053-2.6 1.053.5 1.054-2.5 1.053-4.1 1.053 1.6 1.054 1.6 1.053.3 1.053-1.9 1.054-2.4 1.053-1 1.053-.1 1.054-1.1 1.053-2.3 1.053-6.2 1.054 2.4 1.053 1.4 1.053-.1 1.054-1.4 1.053 1.6 1.053 2.6 1.054 6.9 1.053-2 1.053.7 1.054-1.7 1.053.1 1.053-1.3 1.054-2.8 1.053-5.1 1.053-2 1.054-4 1.053-.9 1.053-3.5 1.054-5.3 1.053-6.8 1.053-3.1 1.054-.5 1.053-2.5 1.053-2 1.054-.8 1.053.5 1.053 1.3 1.054-.6 1.053-.7 1.053 1.7 1.054-.2 1.053 1.5 1.053.7 1.054-4.6 1.053.4 1.053.6 1.054-.6 1.053-.1 1.053-.1 1.054.2 1.053 6.8 1.053 1 1.054-1.4 1.053-.8 1.053.6 1.054 2.2 1.053-1.2 1.053 1.2 1.054.2 1.053-1.7 1.053-2.7 1.054-5.3 1.053-8.1 1.053-3.3 1.054-7.7 1.053-2.9 1.053-1 1.054 1.6 1.053 4.5 1.053 4.9 1.054 2.9 1.053 6.7 1.053 5.9 1.054 1.9 1.053 1.6 1.053-5.2 1.054-4.2 1.053-1.4 1.053-7.7 1.054-5.2 1.053-5.1 1.053-2.9 1.054 2.6 1.053-.4 1.053 1.8 1.054 14.2 1.053 9.2 1.053 6 1.054 2.8 1.053 4.7 1.053 7.1 1.054 2.9 1.053 6 1.053-.3 1.054-2.1 1.053-5.4 1.053-6.9 1.054-.9 1.053-4.5 1.053-18.6 1.054-14.3 1.053-9.7 1.053-3.4 1.054-1.8 1.053-4.7 1.053-4.6 1.054-6.4 1.053-2.7 1.053 6.1 1.054 2.7 1.053 1.5 1.053.1 1.054 1.7 1.053 8.3 1.053 10.4 1.054.1 1.053 2 1.053-4.8h1.054l1.053 4.6 1.053 2.7 1.054.4 1.053 2.5 1.053 1.4 1.054 9.8 1.053 2.5h1.053l1.054-.7 1.053 1.4 1.053-1.2 1.054-1.6 1.053-5.6 1.053-4.4 1.054-4 1.053-1.7 1.053-10 1.054-8.4 1.053-1.1 1.053-2.9 1.054 1.8 1.053-2.3 1.053-.8 1.054 4.2 1.053 5.8 1.053-.3 1.054 2.6 1.053-2.3h1.053l1.054-2.2 1.053-2.7 1.053.9 1.054-.1 1.053-2.4 1.053-1.8h1.054l1.053 1.8 1.053 2.8 1.054-1.6 1.053-.1 1.053 2.6 1.054-1.3 1.053.8 1.053-.4 1.054-.1 1.053 2.2 1.053.8 1.054-.6 1.053 3.3h1.053l1.054-2 1.053-2.5 1.053-4.7 1.054.1 1.053-3.3 1.053 3 1.054 3.6 1.053 1.6 1.053-1.2 1.054 4.2 1.053-1.3 1.053 1.7 1.054-3.6 1.053-12.8 1.053-6.6 1.054 1 1.053-1.5 1.053-2.5 1.054.4 1.053-2.4 1.053 6.9 1.054-.8 1.053-3.8 1.053-3.4 1.054 1.8 1.053-1.5 1.053-.6 1.054.9 1.053 5.1 1.053 4.5 1.054 1.2 1.053 1 1.053-3.8 1.054-.2 1.053-3.1 1.053-1.2 1.054-3.1 1.053-.2 1.053-2.7 1.054 2.1 1.053.6 1.053-1.2 1.054-2.5 1.053 2 1.053 1.6 1.054 2.8 1.053 5.7 1.053-.6 1.054 1.3 1.053.2 1.053-1.2 1.054-.8 1.053-1.5 1.053-3.3 1.054-.1 1.053 1.8 1.053 4.6 1.054.2 1.053 2.1 1.053 1.7 1.054 2 1.053 3.1 1.053.3 1.054.5 1.053 2.9 1.053.2 1.054-1 1.053-3 1.053-.2 1.054-.3 1.053-3.8 1.053-8.6 1.054-14.6 1.053-2.9 1.053-4 1.054-9 1.053-5.6 1.053-4.5 1.054 4.3 1.053 10.3 1.054 2.6 1.053 8 1.053 6.4 1.054-2.7 1.053-.5 1.053-5.4 1.054-3.8 1.053-4.1 1.053-9.5 1.054-2.8 1.053-.2 1.053 1.1 1.054-.2 1.053-.6 1.053 3 1.054 3.5 1.053-1.6 1.053 6.5 1.054 3 1.053 3.4 1.053 2 1.054-2.2 1.053-1.9 1.053-6.9 1.054-12 1.053-7 1.053-7.2 1.054-1.7 1.053-1.2 1.053-10.3 1.054-15 1.053-13.3 1.053-13.3 1.054-18.3 1.053-13.1 1.053-22.1 1.054-5.1 1.053 17.2 1.053 17.3 1.054 17.4 1.053 24.7 1.053 14 1.054 20.4 1.053 20.2 1.053-1.2 1.054-8.1 1.053.7 1.053 2.6 1.054 4.7 1.053 15 1.053.4 1.054 2.1 1.053 3.9 1.053-7.6 1.054-8 1.053-18.4 1.053-2.8 1.054-2.2 1.053-4.7 1.053 1.8 1.054.4 1.053 2.7 1.053 18.5 1.054 3.5 1.053 2.6 1.053 5.3 1.054 5 1.053 4.9 1.053 6 1.054-.6 1.053.6 1.053.9 1.054-1.1 1.053-2.6 1.053.6 1.054-3 1.053-.6 1.053-2.5 1.054-3.1 1.053-1.7 1.053-.9 1.054.2 1.053-1.9 1.053-2 1.054.5 1.053-.3 1.053-5.3 1.054-4.1 1.053-6.8 1.053 8.5 1.054-7.6 1.053-4.4 1.053-.3 1.054 4.5 1.053 2.9 1.053 4.8 1.054-22.1 1.053-4.8 1.053-9.7 1.054-12.5 1.053-10.6 1.053-10.5 1.054-28.6 1.053-5.2 1.053 8.1 1.054 7.8 1.053 9.5 1.053 7.2 1.054 8.8 1.053 32.3 1.053 17.5 1.054-.5 1.053-.4 1.053-2 1.054-.8 1.053-1.9 1.053-3.4 1.054-1.6 1.053-4 1.053 1.9 1.054 4.1 1.053-.9 1.053.6 1.054-1.2 1.053 5 1.053 1.4 1.054-1.6 1.053-2.9 1.053 2.7 1.054 1 1.053-5.4 1.053-7.3 1.054-3.1 1.053-4.4 1.053-2.7 1.054-1.2 1.053-6.9 1.053 2 1.054-.7 1.053-.4 1.053-2 1.054 2.9 1.053-1 1.053 1.8 1.054-4.4 1.053-5.1 1.053-3.8 1.054-7.4 1.053-8.6 1.053-8.9 1.054-13.3 1.053-5.4 1.053-.1 1.054-1.4 1.053 4.9 1.053 1.6 1.054 5.6 1.053 9.5 1.053 8.7 1.054 2.1 1.053 1.4 1.053-.9 1.054.4 1.053-1 1.053.6 1.054-.1 1.053.5 1.053-.7 1.054 3 1.053 2.1 1.053 2.2 1.054 4.2 1.053-2.7 1.053-.4 1.054-3.3 1.053-1.1 1.053-7.5 1.054-8.4 1.053-6 1.053-1.3 1.054-1 1.053-6.6 1.053-11.1 1.054-3 1.053-1.6 1.053-9.7 1.054-8.4 1.053-10.1 1.053-2.1 1.054-1.3 1.053-6.8 1.053-6.6h1.054l1.053-1.5 1.053-.6 1.054-1 1.053-1 1.053-.1 1.054.8 1.053.3 1.053-1.4 1.054 5.5 1.053 8.7 1.053 6.7 1.054 11 1.053 7.5 1.053 8.3 1.054 14 1.053 14 1.053 6.8 1.054 3.8 1.053-.8h1.053l1.054 1.1 1.053-3.4.747-15.6h10" fill="none" class="highcharts-tracker"/></svg>