<?xml version="1.0" encoding="UTF-8" standalone="no"?>
<svg
   xmlns:dc="http://purl.org/dc/elements/1.1/"
   xmlns:cc="http://creativecommons.org/ns#"
   xmlns:rdf="http://www.w3.org/1999/02/22-rdf-syntax-ns#"
   xmlns:svg="http://www.w3.org/2000/svg"
   xmlns="http://www.w3.org/2000/svg"
   xmlns:sodipodi="http://sodipodi.sourceforge.net/DTD/sodipodi-0.dtd"
   xmlns:inkscape="http://www.inkscape.org/namespaces/inkscape"
   version="1.1"
   width="910"
   height="580"
   id="svg9782"
   inkscape:version="0.91 r13725"
   sodipodi:docname="transactions.svg">
  <metadata
     id="metadata9962">
    <rdf:RDF>
      <cc:Work
         rdf:about="">
        <dc:format>image/svg+xml</dc:format>
        <dc:type
           rdf:resource="http://purl.org/dc/dcmitype/StillImage" />
        <dc:title></dc:title>
      </cc:Work>
    </rdf:RDF>
  </metadata>
  <sodipodi:namedview
     pagecolor="#ffffff"
     bordercolor="#666666"
     borderopacity="1"
     objecttolerance="10"
     gridtolerance="10"
     guidetolerance="10"
     inkscape:pageopacity="0"
     inkscape:pageshadow="2"
     inkscape:window-width="1366"
     inkscape:window-height="768"
     id="namedview9960"
     showgrid="false"
     inkscape:zoom="0.71685393"
     inkscape:cx="461.59129"
     inkscape:cy="340.76155"
     inkscape:window-x="0"
     inkscape:window-y="0"
     inkscape:window-maximized="1"
     inkscape:current-layer="svg9782" />
  <defs
     id="defs9784">
    <clipPath
       id="highcharts-1">
      <rect
         rx="0"
         ry="0"
         x="0"
         y="0"
         width="9999"
         height="400"
         id="rect9787"
         style="fill:none;stroke-width:0.000001" />
    </clipPath>
    <clipPath
       id="highcharts-2">
      <rect
         x="0"
         y="0"
         width="784"
         height="492"
         id="rect9790"
         style="fill:none" />
    </clipPath>
  </defs>
  <g
     class="highcharts-grid"
     zIndex="1"
     id="g9794"
     transform="translate(0,-7)" />
  <g
     class="highcharts-grid"
     zIndex="1"
     id="g9796"
     transform="translate(16,-3)">
    <path
       d="m 81,497.5 784,0"
       zIndex="1"
       id="path9798"
       inkscape:connector-curvature="0"
       style="fill:none;stroke:#c0c0c0;stroke-width:1" />
    <path
       d="m 81,418.5 784,0"
       zIndex="1"
       id="path9800"
       inkscape:connector-curvature="0"
       style="fill:none;stroke:#c0c0c0;stroke-width:1" />
    <path
       d="m 81,357.5 784,0"
       zIndex="1"
       id="path9802"
       inkscape:connector-curvature="0"
       style="fill:none;stroke:#c0c0c0;stroke-width:1" />
    <path
       d="m 81,166.5 784,0"
       zIndex="1"
       id="path9804"
       inkscape:connector-curvature="0"
       style="fill:none;stroke:#c0c0c0;stroke-width:1" />
    <path
       d="m 81,455.5 784,0"
       zIndex="1"
       id="path9806"
       inkscape:connector-curvature="0"
       style="fill:none;stroke:#c0c0c0;stroke-width:1" />
    <path
       d="m 81,386.5 784,0"
       zIndex="1"
       id="path9808"
       inkscape:connector-curvature="0"
       style="fill:none;stroke:#c0c0c0;stroke-width:1" />
    <path
       zIndex="1"
       d="m 81,55.5 784,0"
       id="path9810"
       inkscape:connector-curvature="0"
       style="fill:none;stroke:#c0c0c0;stroke-width:1" />
    <path
       d="m 81,547.5 784,0"
       zIndex="1"
       id="path9812"
       inkscape:connector-curvature="0"
       style="fill:none;stroke:#c0c0c0;stroke-width:1" />
  </g>
  <g
     class="highcharts-axis"
     zIndex="2"
     id="g9814"
     transform="translate(16,-3)">
    <path
       d="m 464.5,547 0,5"
       id="path9816"
       inkscape:connector-curvature="0"
       style="fill:none;stroke:#c0d0e0;stroke-width:1" />
    <path
       d="m 655.5,547 0,5"
       id="path9818"
       inkscape:connector-curvature="0"
       style="fill:none;stroke:#c0d0e0;stroke-width:1" />
    <path
       d="m 848.5,547 0,5"
       id="path9820"
       inkscape:connector-curvature="0"
       style="fill:none;stroke:#c0d0e0;stroke-width:1" />
    <path
       d="m 270.5,547 0,5"
       id="path9822"
       inkscape:connector-curvature="0"
       style="fill:none;stroke:#c0d0e0;stroke-width:1" />
    <path
       d="m 367.5,547 0,5"
       id="path9824"
       inkscape:connector-curvature="0"
       style="fill:none;stroke:#c0d0e0;stroke-width:1" />
    <path
       d="m 559.5,547 0,5"
       id="path9826"
       inkscape:connector-curvature="0"
       style="fill:none;stroke:#c0d0e0;stroke-width:1" />
    <path
       d="m 752.5,547 0,5"
       id="path9828"
       inkscape:connector-curvature="0"
       style="fill:none;stroke:#c0d0e0;stroke-width:1" />
    <path
       d="m 174.5,547 0,5"
       id="path9830"
       inkscape:connector-curvature="0"
       style="fill:none;stroke:#c0d0e0;stroke-width:1" />
    <path
       d="m 81,547.5 784,0"
       zIndex="7"
       visibility="visible"
       id="path9832"
       inkscape:connector-curvature="0"
       style="visibility:visible;fill:none;stroke:#c0d0e0;stroke-width:1" />
  </g>
  <g
     class="highcharts-axis"
     zIndex="2"
     id="g9834"
     transform="translate(-4,-3)">
    <text
       x="24"
       y="301"
       style="color:#6d869f;font-weight:bold;font-size:17px;font-family:'Lucida Grande', 'Lucida Sans Unicode', Verdana, Arial, Helvetica, sans-serif;text-anchor:middle;visibility:visible;fill:#6d869f"
       zIndex="7"
       transform="matrix(0,-1,1,0,-277,325)"
       visibility="visible"
       id="text9836">
      <tspan
         x="24"
         id="tspan9838">Number of Transactions</tspan>
    </text>
  </g>
  <g
     class="highcharts-series-group"
     zIndex="3"
     id="g9840"
     transform="translate(16,-3)">
    <g
       class="highcharts-series"
       visibility="visible"
       zIndex="0.1"
       transform="translate(81,55)"
       clip-path="url(#highcharts-2)"
       id="g9842"
       style="visibility:visible">
      <path
         d="m 7.6862745,429 1.0533344,17.5 1.0533344,5.4 1.0533347,0.8 1.053334,15 1.053335,-7.7 1.053334,-0.6 1.053334,1.8 1.053335,0.5 1.053334,-1.2 1.053335,2.3 1.053334,0 1.053334,-2.8 1.053335,-10.9 1.053334,-4 1.053335,-3.9 1.053334,-6.1 1.053334,-1.4 1.053335,-1.5 1.053334,-1.2 1.053335,3.7 1.053334,2.9 1.053335,1.7 1.053334,3.9 1.053334,-1 1.053335,0.8 1.053334,1.2 1.053335,-0.1 1.053334,-4 1.053334,-5.7 1.053335,-6.2 1.053334,-4.4 1.053335,-5.4 1.053334,-5.2 1.053334,1.7 1.053335,3.1 1.053334,1.7 1.053335,-2.9 1.053334,0 1.053335,1.5 1.053334,6.4 1.053334,-3.3 1.053335,-2.2 1.053334,-2.9 1.053335,1.9 1.053334,2.7 1.053334,-1.1 1.053335,-6.8 1.053334,-9.1 1.053335,-2.9 1.053334,0.1 1.053334,1.1 1.053335,-2.1 1.053334,-0.2 1.053335,-2.3 1.053334,-1.1 1.053335,-1.4 1.053334,-0.1 1.053334,1.1 1.053335,-4.2 1.053334,-1.2 1.053335,3.2 1.053334,5.4 1.053334,-1 1.053335,-2.1 1.053334,0.5 1.053335,2.8 1.053334,1.5 1.053334,1 1.053335,10.5 1.053334,5.1 1.053335,1.9 1.053334,-3.1 1.053334,-1.9 1.053335,1.1 1.053334,-1.5 1.053335,-8.5 1.053334,-1.4 1.053335,0.7 1.053334,2.8 1.053334,8.3 1.053335,0.9 1.053334,2.5 1.053335,4.8 1.053334,1.9 1.053334,2.3 1.053335,2.2 1.053334,-2.9 1.053332,4.9 1.05334,0.6 1.05333,-3.4 1.05334,1.5 1.05333,-1.1 1.05333,-0.8 1.05334,4.9 1.05333,-1.3 1.05334,-1.3 1.05333,-3 1.05334,-2.6 1.05333,1.2 1.05334,6.4 1.05333,-3 1.05333,0 1.05334,4.1 1.05333,1 1.05334,-2.4 1.05333,-0.3 1.05334,-13.2 1.05333,-1.1 1.05334,-0.6 1.05333,-2.9 1.05333,5.4 1.05334,5 1.05333,4.2 1.05334,11.3 1.05333,1.5 1.05334,-0.6 1.05333,-0.3 1.05333,-8.1 1.05334,-4.1 1.05333,-4.6 1.05334,-4.5 1.05333,-2.2 1.05334,-0.2 1.05333,-4 1.05334,3.6 1.05333,0.3 1.05333,-2.6 1.05334,-0.8 1.05333,2.6 1.05334,0.6 1.05333,5.8 1.05334,0.7 1.05333,-0.7 1.05334,1.1 1.05333,-3.5 1.05333,-1.5 1.05334,-2 1.05333,-3.2 1.05334,1.5 1.05333,-0.8 1.05334,3.1 1.05333,4.6 1.05334,1.8 1.05333,0.6 1.05333,2.9 1.05334,-1.8 1.05333,3.7 1.05334,-0.5 1.05333,1.3 1.05334,1.2 1.05333,3.4 1.05333,3.3 1.05334,2.9 1.05333,3.1 1.05334,3.4 1.05333,-0.1 1.05334,-3.8 1.05333,-4 1.05334,-6 1.05333,-1.1 1.05333,-3.4 1.05334,-0.5 1.05333,3.3 1.05334,4.5 1.05333,2.2 1.05334,5.7 1.05333,1.6 1.05334,2.2 1.05333,0 1.05333,-1.9 1.05334,-3.4 1.05333,-1.2 1.05334,-3.4 1.05333,-4.1 1.05334,-2.5 1.05333,-0.6 1.05334,0.5 1.05333,5.4 1.05333,-0.7 1.05334,1.3 1.05333,0.6 1.05334,-1.9 1.05333,-0.6 1.05334,1.3 1.05333,-3.7 1.05333,0.2 1.05334,0.1 1.05333,0.3 1.05334,1.9 1.05333,-2.8 1.05334,-1.6 1.05333,-2.7 1.05334,-1 1.05333,-1.1 1.05333,1.6 1.05334,-0.7 1.05333,2.4 1.05334,-0.5 1.05333,0.7 1.05334,1 1.05333,1.3 1.05334,1.4 1.05333,2.8 1.05333,-1.8 1.05334,-3.9 1.05333,-1.5 1.05334,0.3 1.05333,-2.2 1.05334,-5 1.05333,-8.7 1.05334,-1.7 1.05333,0.1 1.05333,-1.8 1.05334,-3.5 1.05333,-4.1 1.05334,-3.3 1.05333,2.1 1.05334,-5.8 1.05333,-0.3 1.05333,-6.8 1.05334,-0.5 1.05333,1.2 1.05334,1.9 1.05333,1 1.05334,3.2 1.05333,0.8 1.05334,8.5 1.05333,2.5 1.05333,0.9 1.05334,0.9 1.05333,-0.7 1.05334,3.6 1.05333,0.4 1.05334,-2.2 1.05333,-2.7 1.05334,0.1 1.05333,1.4 1.05333,1.3 1.05334,-1 1.05333,0.4 1.05334,-2.2 1.05333,0.2 1.05334,-3.2 1.05333,-4.8 1.05334,-2.4 1.05333,1.8 1.05333,0.4 1.05334,2.8 1.05333,-3.7 1.05334,-1.3 1.05333,-5.2 1.05334,-1.8 1.05333,-6.5 1.05333,-2.8 1.05334,0.1 1.05333,1.5 1.05334,3 1.05333,9.9 1.05334,-0.7 1.05333,1.2 1.05334,-0.9 1.05333,-2.6 1.05333,0.5 1.05334,-2.5 1.05333,-4.1 1.05334,1.6 1.05333,1.6 1.05334,0.3 1.05333,-1.9 1.05334,-2.4 1.05333,-1 1.05333,-0.1 1.05334,-1.1 1.05333,-2.3 1.05334,-6.2 1.05333,2.4 1.05334,1.4 1.05333,-0.1 1.05334,-1.4 1.05333,1.6 1.05333,2.6 1.05334,6.9 1.05333,-2 1.05334,0.7 1.05333,-1.7 1.05334,0.1 1.05333,-1.3 1.05333,-2.8 1.05334,-5.1 1.05333,-2 1.05334,-4 1.05333,-0.9 1.05334,-3.5 1.05333,-5.3 1.05334,-6.8 1.05333,-3.1 1.05333,-0.5 1.05334,-2.5 1.05333,-2 1.05334,-0.8 1.05333,0.5 1.05334,1.3 1.05333,-0.6 1.05334,-0.7 1.05333,1.7 1.05333,-0.2 1.05334,1.5 1.05333,0.7 1.05334,-4.6 1.05333,0.4 1.05334,0.6 1.05333,-0.6 1.05334,-0.1 1.05333,-0.1 1.05333,0.2 1.05334,6.8 1.05333,1 1.05334,-1.4 1.05333,-0.8 1.05334,0.6 1.05333,2.2 1.05333,-1.2 1.05334,1.2 1.05333,0.2 1.05334,-1.7 1.05333,-2.7 1.05334,-5.3 1.05333,-8.1 1.05334,-3.3 1.05333,-7.7 1.05333,-2.9 1.05334,-1 1.05333,1.6 1.05334,4.5 1.05333,4.9 1.05334,2.9 1.05333,6.7 1.05334,5.9 1.05333,1.9 1.05333,1.6 1.05334,-5.2 1.05333,-4.2 1.05334,-1.4 1.05333,-7.7 1.05334,-5.2 1.05333,-5.1 1.05334,-2.9 1.05333,2.6 1.05333,-0.4 1.05334,1.8 1.05333,14.2 1.05334,9.2 1.05333,6 1.05334,2.8 1.05333,4.7 1.05333,7.1 1.05334,2.9 1.05333,6 1.05334,-0.3 1.05333,-2.1 1.05334,-5.4 1.05333,-6.9 1.05334,-0.9 1.05333,-4.5 1.05333,-18.6 1.05334,-14.3 1.05333,-9.7 1.05334,-3.4 1.05333,-1.8 1.05334,-4.7 1.05333,-4.6 1.05334,-6.4 1.05333,-2.7 1.05333,6.1 1.05334,2.7 1.05333,1.5 1.05334,0.1 1.05333,1.7 1.05334,8.3 1.05333,10.4 1.05334,0.1 1.05333,2 1.05333,-4.8 1.05334,0 1.05333,4.6 1.05334,2.7 1.05333,0.4 1.05334,2.5 1.05333,1.4 1.05333,9.8 1.05334,2.5 1.05333,0 1.05334,-0.7 1.05333,1.4 1.05334,-1.2 1.05333,-1.6 1.05334,-5.6 1.05333,-4.4 1.05333,-4 1.05334,-1.7 1.05333,-10 1.05334,-8.4 1.05333,-1.1 1.05334,-2.9 1.05333,1.8 1.05334,-2.3 1.05333,-0.8 1.05333,4.2 1.05334,5.8 1.05333,-0.3 1.05334,2.6 1.05333,-2.3 1.05334,0 1.05333,-2.2 1.05333,-2.7 1.05334,0.9 1.05333,-0.1 1.05334,-2.4 1.05333,-1.8 1.05334,0 1.05333,1.8 1.05334,2.8 1.05333,-1.6 1.05333,-0.1 1.05334,2.6 1.05333,-1.3 1.05334,0.8 1.05333,-0.4 1.05334,-0.1 1.05333,2.2 1.05334,0.8 1.05333,-0.6 1.05333,3.3 1.05334,0 1.05333,-2 1.05334,-2.5 1.05333,-4.7 1.05334,0.1 1.05333,-3.3 1.05334,3 1.05333,3.6 1.05333,1.6 1.05334,-1.2 1.05333,4.2 1.05334,-1.3 1.05333,1.7 1.05334,-3.6 1.05333,-12.8 1.05333,-6.6 1.05334,1 1.05333,-1.5 1.05334,-2.5 1.05333,0.4 1.05334,-2.4 1.05333,6.9 1.05334,-0.8 1.05333,-3.8 1.05333,-3.4 1.05334,1.8 1.05333,-1.5 1.05334,-0.6 1.05333,0.9 1.05334,5.1 1.05333,4.5 1.05334,1.2 1.05333,1 1.05333,-3.8 1.05334,-0.2 1.05333,-3.1 1.05334,-1.2 1.05333,-3.1 1.05334,-0.2 1.05333,-2.7 1.05334,2.1 1.05333,0.6 1.05333,-1.2 1.05334,-2.5 1.05333,2 1.05334,1.6 1.05333,2.8 1.05334,5.7 1.05333,-0.6 1.05333,1.3 1.05334,0.2 1.05333,-1.2 1.05334,-0.8 1.05333,-1.5 1.05334,-3.3 1.05333,-0.1 1.05334,1.8 1.05333,4.6 1.05333,0.2 1.05334,2.1 1.05333,1.7 1.05334,2 1.05333,3.1 1.05334,0.3 1.05333,0.5 1.05334,2.9 1.05333,0.2 1.05333,-1 1.05334,-3 1.05333,-0.2 1.05334,-0.3 1.05333,-3.8 1.05334,-8.6 1.05333,-14.6 1.05334,-2.9 1.05333,-4 1.05333,-9 1.05334,-5.6 1.05333,-4.5 1.05334,4.3 1.05333,10.3 1.05334,2.6 1.05333,8 1.05333,6.4 1.05334,-2.7 1.05333,-0.5 1.05334,-5.4 1.05333,-3.8 1.05334,-4.1 1.05333,-9.5 1.05334,-2.8 1.05333,-0.2 1.05333,1.1 1.05334,-0.2 1.05333,-0.6 1.05334,3 1.05333,3.5 1.05334,-1.6 1.05333,6.5 1.05334,3 1.05333,3.4 1.05333,2 1.05334,-2.2 1.05333,-1.9 1.05334,-6.9 1.05333,-12 1.05334,-7 1.05333,-7.2 1.05334,-1.7 1.05333,-1.2 1.05333,-10.3 1.05334,-15 1.05333,-13.3 1.05334,-13.3 1.05333,-18.3 1.05334,-13.1 1.05333,-22.1 1.05333,-5.1 1.05334,17.2 1.05333,17.3 1.05334,17.4 1.05333,24.7 1.05334,14 1.05333,20.4 1.05334,20.2 1.05333,-1.2 1.05333,-8.1 1.05334,0.7 1.05333,2.6 1.05334,4.7 1.05333,15 1.05334,0.4 1.05333,2.1 1.05334,3.9 1.05333,-7.6 1.05333,-8 1.05334,-18.4 1.05333,-2.8 1.05334,-2.2 1.05333,-4.7 1.05334,1.8 1.05333,0.4 1.05334,2.7 1.05333,18.5 1.05333,3.5 1.05334,2.6 1.05333,5.3 1.05334,5 1.05333,4.9 1.05334,6 1.05333,-0.6 1.05333,0.6 1.05334,0.9 1.05333,-1.1 1.05334,-2.6 1.05333,0.6 1.05334,-3 1.05333,-0.6 1.05334,-2.5 1.05333,-3.1 1.05333,-1.7 1.05334,-0.9 1.05333,0.2 1.05334,-1.9 1.05333,-2 1.05334,0.5 1.05333,-0.3 1.05334,-5.3 1.05333,-4.1 1.05333,-6.8 1.05334,8.5 1.05333,-7.6 1.05334,-4.4 1.05333,-0.3 1.05334,4.5 1.05333,2.9 1.05334,4.8 1.05333,-22.1 1.05333,-4.8 1.05334,-9.7 1.05333,-12.5 1.05334,-10.6 1.05333,-10.5 1.05334,-28.6 1.05333,-5.2 1.05333,8.1 1.05334,7.8 1.05333,9.5 1.05334,7.2 1.05333,8.8 1.05334,32.3 1.05333,17.5 1.05334,-0.5 1.05333,-0.4 1.05333,-2 1.05334,-0.8 1.05333,-1.9 1.05334,-3.4 1.05333,-1.6 1.05334,-4 1.05333,1.9 1.05334,4.1 1.05333,-0.9 1.05333,0.6 1.05334,-1.2 1.05333,5 1.05334,1.4 1.05333,-1.6 1.05334,-2.9 1.05333,2.7 1.05334,1 1.05333,-5.4 1.05333,-7.3 1.05334,-3.1 1.05333,-4.4 1.05334,-2.7 1.05333,-1.2 1.05334,-6.9 1.05333,2 1.05333,-0.7 1.05334,-0.4 1.05333,-2 1.05334,2.9 1.05333,-1 1.05334,1.8 1.05333,-4.4 1.05334,-5.1 1.05333,-3.8 1.05333,-7.4 1.05334,-8.6 1.05333,-8.9 1.05334,-13.3 1.05333,-5.4 1.05334,-0.1 1.05333,-1.4 1.05334,4.9 1.05333,1.6 1.05333,5.6 1.05334,9.5 1.05333,8.7 1.05334,2.1 1.05333,1.4 1.05334,-0.9 1.05333,0.4 1.05334,-1 1.05333,0.6 1.05333,-0.1 1.05334,0.5 1.05333,-0.7 1.05334,3 1.05333,2.1 1.05334,2.2 1.05333,4.2 1.05333,-2.7 1.05334,-0.4 1.05333,-3.3 1.05334,-1.1 1.05333,-7.5 1.05334,-8.4 1.05333,-6 1.05334,-1.3 1.05333,-1 1.05333,-6.6 1.05334,-11.1 1.05333,-3 1.05334,-1.6 1.05333,-9.7 1.05334,-8.4 1.05333,-10.1 1.05334,-2.1 1.05333,-1.3 1.05333,-6.8 1.05334,-6.6 1.05333,0 1.05334,-1.5 1.05333,-0.6 1.05334,-1 1.05333,-1 1.05333,-0.1 1.05334,0.8 1.05333,0.3 1.05334,-1.4 1.05333,5.5 1.05334,8.7 1.05333,6.7 1.05334,11 1.05333,7.5 1.05333,8.3 1.05334,14 1.05333,14 1.05334,6.8 1.05333,3.8 1.05334,-0.8 1.05333,0 1.05334,1.1 1.05333,-3.4 0.74667,-15.6"
         zIndex="1"
         id="path9850"
         inkscape:connector-curvature="0"
         style="fill:none;stroke:#4572a7;stroke-width:2" />
    </g>
  </g>
  <g
     class="highcharts-legend"
     zIndex="7"
     id="g9864"
     transform="translate(0,-7)">
    <g
       zIndex="1"
       clip-path="url(#highcharts-1)"
       id="g9866">
      <g
         id="g9868" />
    </g>
  </g>
  <g
     class="highcharts-axis-labels"
     zIndex="7"
     id="g9870"
     transform="translate(16,5)">
    <text
       x="464.97897"
       y="561"
       style="color:#666666;font-size:16px;line-height:14px;font-family:'Lucida Grande', 'Lucida Sans Unicode', Verdana, Arial, Helvetica, sans-serif;text-anchor:middle;visibility:visible;fill:#666666"
       visibility="visible"
       id="text9872">
      <tspan
         x="464.97897"
         id="tspan9874">Jan '15</tspan>
    </text>
    <text
       x="849.44604"
       y="561"
       style="color:#666666;font-size:16px;line-height:14px;font-family:'Lucida Grande', 'Lucida Sans Unicode', Verdana, Arial, Helvetica, sans-serif;text-anchor:middle;visibility:visible;fill:#666666"
       visibility="visible"
       id="text9876">
      <tspan
         x="849.44604"
         id="tspan9878">Jan '16</tspan>
    </text>
    <text
       x="271.16544"
       y="561"
       style="color:#666666;font-size:16px;line-height:14px;font-family:'Lucida Grande', 'Lucida Sans Unicode', Verdana, Arial, Helvetica, sans-serif;text-anchor:middle;visibility:visible;fill:#666666"
       visibility="visible"
       id="text9880">
      <tspan
         x="271.16544"
         id="tspan9882">Jul '14</tspan>
    </text>
    <text
       x="655.63251"
       y="561"
       style="color:#666666;font-size:16px;line-height:14px;font-family:'Lucida Grande', 'Lucida Sans Unicode', Verdana, Arial, Helvetica, sans-serif;text-anchor:middle;visibility:visible;fill:#666666"
       visibility="visible"
       id="text9884">
      <tspan
         x="655.63251"
         id="tspan9886">Jul '15</tspan>
    </text>
    <text
       x="175.312"
       y="561"
       style="color:#666666;font-size:16px;line-height:14px;font-family:'Lucida Grande', 'Lucida Sans Unicode', Verdana, Arial, Helvetica, sans-serif;text-anchor:middle;visibility:visible;fill:#666666"
       visibility="visible"
       id="text9888">
      <tspan
         x="175.312"
         id="tspan9890">Apr '14</tspan>
    </text>
    <text
       x="368.0722"
       y="561"
       style="color:#666666;font-size:16px;line-height:14px;font-family:'Lucida Grande', 'Lucida Sans Unicode', Verdana, Arial, Helvetica, sans-serif;text-anchor:middle;visibility:visible;fill:#666666"
       visibility="visible"
       id="text9892">
      <tspan
         x="368.0722"
         id="tspan9894">Oct '14</tspan>
    </text>
    <text
       x="559.77905"
       y="561"
       style="color:#666666;font-size:16px;line-height:14px;font-family:'Lucida Grande', 'Lucida Sans Unicode', Verdana, Arial, Helvetica, sans-serif;text-anchor:middle;visibility:visible;fill:#666666"
       visibility="visible"
       id="text9896">
      <tspan
         x="559.77905"
         id="tspan9898">Apr '15</tspan>
    </text>
    <text
       x="752.53925"
       y="561"
       style="color:#666666;font-size:16px;line-height:14px;font-family:'Lucida Grande', 'Lucida Sans Unicode', Verdana, Arial, Helvetica, sans-serif;text-anchor:middle;visibility:visible;fill:#666666"
       visibility="visible"
       id="text9900">
      <tspan
         x="752.53925"
         id="tspan9902">Oct '15</tspan>
    </text>
  </g>
  <g
     class="highcharts-axis-labels"
     zIndex="7"
     id="g9904"
     transform="translate(0,-3)">
    <text
       x="89"
       y="503.53625"
       style="color:#666666;font-size:16px;line-height:14px;font-family:'Lucida Grande', 'Lucida Sans Unicode', Verdana, Arial, Helvetica, sans-serif;text-anchor:end;visibility:visible;fill:#666666"
       visibility="visible"
       id="text9906">
      <tspan
         x="89"
         id="tspan9908">60,000</tspan>
    </text>
    <text
       x="89"
       y="424.5415"
       style="color:#666666;font-size:16px;line-height:14px;font-family:'Lucida Grande', 'Lucida Sans Unicode', Verdana, Arial, Helvetica, sans-serif;text-anchor:end;visibility:visible;fill:#666666"
       visibility="visible"
       id="text9910">
      <tspan
         x="89"
         id="tspan9912">80,000</tspan>
    </text>
    <text
       x="89"
       y="363.26843"
       style="color:#666666;font-size:16px;line-height:14px;font-family:'Lucida Grande', 'Lucida Sans Unicode', Verdana, Arial, Helvetica, sans-serif;text-anchor:end;visibility:visible;fill:#666666"
       visibility="visible"
       id="text9914">
      <tspan
         x="89"
         id="tspan9916">100,000</tspan>
    </text>
    <text
       x="89"
       y="172.93684"
       style="color:#666666;font-size:16px;line-height:14px;font-family:'Lucida Grande', 'Lucida Sans Unicode', Verdana, Arial, Helvetica, sans-serif;text-anchor:end;visibility:visible;fill:#666666"
       visibility="visible"
       id="text9918">
      <tspan
         x="89"
         id="tspan9920">200,000</tspan>
    </text>
    <text
       x="89.109749"
       y="551.60388"
       style="color:#666666;font-size:16px;line-height:14px;font-family:'Lucida Grande', 'Lucida Sans Unicode', Verdana, Arial, Helvetica, sans-serif;text-anchor:end;visibility:hidden;fill:#666666"
       visibility="hidden"
       id="text9922">
      <tspan
         x="89.109749"
         id="tspan9924">50,000</tspan>
    </text>
    <text
       x="89"
       y="461.20795"
       style="color:#666666;font-size:16px;line-height:14px;font-family:'Lucida Grande', 'Lucida Sans Unicode', Verdana, Arial, Helvetica, sans-serif;text-anchor:end;visibility:visible;fill:#666666"
       visibility="visible"
       id="text9926">
      <tspan
         x="89"
         id="tspan9928">70,000</tspan>
    </text>
    <text
       x="89"
       y="392.1994"
       style="color:#666666;font-size:16px;line-height:14px;font-family:'Lucida Grande', 'Lucida Sans Unicode', Verdana, Arial, Helvetica, sans-serif;text-anchor:end;visibility:visible;fill:#666666"
       visibility="visible"
       id="text9930">
      <tspan
         x="89"
         id="tspan9932">90,000</tspan>
    </text>
    <text
       x="89"
       y="61.599998"
       style="color:#666666;font-size:16px;line-height:14px;font-family:'Lucida Grande', 'Lucida Sans Unicode', Verdana, Arial, Helvetica, sans-serif;text-anchor:end;visibility:visible;fill:#666666"
       visibility="visible"
       id="text9934">
      <tspan
         x="89"
         id="tspan9936">300,000</tspan>
    </text>
  </g>
  <g
     class="highcharts-tracker"
     zIndex="9"
     id="g9954"
     transform="translate(16,-3)">
    <g
       visibility="visible"
       zIndex="1"
       transform="translate(81,55)"
       id="g9956"
       style="visibility:visible">
      <path
         d="m -2.3137255,429 10,0 1.0533344,17.5 1.0533344,5.4 1.0533347,0.8 1.053334,15 1.053335,-7.7 1.053334,-0.6 1.053334,1.8 1.053335,0.5 1.053334,-1.2 1.053335,2.3 1.053334,0 1.053334,-2.8 1.053335,-10.9 1.053334,-4 1.053335,-3.9 1.053334,-6.1 1.053334,-1.4 1.053335,-1.5 1.053334,-1.2 1.053335,3.7 1.053334,2.9 1.053335,1.7 1.053334,3.9 1.053334,-1 1.053335,0.8 1.053334,1.2 1.053335,-0.1 1.053334,-4 1.053334,-5.7 1.053335,-6.2 1.053334,-4.4 1.053335,-5.4 1.053334,-5.2 1.053334,1.7 1.053335,3.1 1.053334,1.7 1.053335,-2.9 1.053334,0 1.053335,1.5 1.053334,6.4 1.053334,-3.3 1.053335,-2.2 1.053334,-2.9 1.053335,1.9 1.053334,2.7 1.053334,-1.1 1.053335,-6.8 1.053334,-9.1 1.053335,-2.9 1.053334,0.1 1.053334,1.1 1.053335,-2.1 1.053334,-0.2 1.053335,-2.3 1.053334,-1.1 1.053335,-1.4 1.053334,-0.1 1.053334,1.1 1.053335,-4.2 1.053334,-1.2 1.053335,3.2 1.053334,5.4 1.053334,-1 1.053335,-2.1 1.053334,0.5 1.053335,2.8 1.053334,1.5 1.053334,1 1.053335,10.5 1.053334,5.1 1.053335,1.9 1.053334,-3.1 1.053334,-1.9 1.053335,1.1 1.053334,-1.5 1.053335,-8.5 1.053334,-1.4 1.053335,0.7 1.053334,2.8 1.053334,8.3 1.053335,0.9 1.053334,2.5 1.053335,4.8 1.053334,1.9 1.053334,2.3 1.053335,2.2 1.053334,-2.9 1.053332,4.9 1.05334,0.6 1.05333,-3.4 1.05334,1.5 1.05333,-1.1 1.05333,-0.8 1.05334,4.9 1.05333,-1.3 1.05334,-1.3 1.05333,-3 1.05334,-2.6 1.05333,1.2 1.05334,6.4 1.05333,-3 1.05333,0 1.05334,4.1 1.05333,1 1.05334,-2.4 1.05333,-0.3 1.05334,-13.2 1.05333,-1.1 1.05334,-0.6 1.05333,-2.9 1.05333,5.4 1.05334,5 1.05333,4.2 1.05334,11.3 1.05333,1.5 1.05334,-0.6 1.05333,-0.3 1.05333,-8.1 1.05334,-4.1 1.05333,-4.6 1.05334,-4.5 1.05333,-2.2 1.05334,-0.2 1.05333,-4 1.05334,3.6 1.05333,0.3 1.05333,-2.6 1.05334,-0.8 1.05333,2.6 1.05334,0.6 1.05333,5.8 1.05334,0.7 1.05333,-0.7 1.05334,1.1 1.05333,-3.5 1.05333,-1.5 1.05334,-2 1.05333,-3.2 1.05334,1.5 1.05333,-0.8 1.05334,3.1 1.05333,4.6 1.05334,1.8 1.05333,0.6 1.05333,2.9 1.05334,-1.8 1.05333,3.7 1.05334,-0.5 1.05333,1.3 1.05334,1.2 1.05333,3.4 1.05333,3.3 1.05334,2.9 1.05333,3.1 1.05334,3.4 1.05333,-0.1 1.05334,-3.8 1.05333,-4 1.05334,-6 1.05333,-1.1 1.05333,-3.4 1.05334,-0.5 1.05333,3.3 1.05334,4.5 1.05333,2.2 1.05334,5.7 1.05333,1.6 1.05334,2.2 1.05333,0 1.05333,-1.9 1.05334,-3.4 1.05333,-1.2 1.05334,-3.4 1.05333,-4.1 1.05334,-2.5 1.05333,-0.6 1.05334,0.5 1.05333,5.4 1.05333,-0.7 1.05334,1.3 1.05333,0.6 1.05334,-1.9 1.05333,-0.6 1.05334,1.3 1.05333,-3.7 1.05333,0.2 1.05334,0.1 1.05333,0.3 1.05334,1.9 1.05333,-2.8 1.05334,-1.6 1.05333,-2.7 1.05334,-1 1.05333,-1.1 1.05333,1.6 1.05334,-0.7 1.05333,2.4 1.05334,-0.5 1.05333,0.7 1.05334,1 1.05333,1.3 1.05334,1.4 1.05333,2.8 1.05333,-1.8 1.05334,-3.9 1.05333,-1.5 1.05334,0.3 1.05333,-2.2 1.05334,-5 1.05333,-8.7 1.05334,-1.7 1.05333,0.1 1.05333,-1.8 1.05334,-3.5 1.05333,-4.1 1.05334,-3.3 1.05333,2.1 1.05334,-5.8 1.05333,-0.3 1.05333,-6.8 1.05334,-0.5 1.05333,1.2 1.05334,1.9 1.05333,1 1.05334,3.2 1.05333,0.8 1.05334,8.5 1.05333,2.5 1.05333,0.9 1.05334,0.9 1.05333,-0.7 1.05334,3.6 1.05333,0.4 1.05334,-2.2 1.05333,-2.7 1.05334,0.1 1.05333,1.4 1.05333,1.3 1.05334,-1 1.05333,0.4 1.05334,-2.2 1.05333,0.2 1.05334,-3.2 1.05333,-4.8 1.05334,-2.4 1.05333,1.8 1.05333,0.4 1.05334,2.8 1.05333,-3.7 1.05334,-1.3 1.05333,-5.2 1.05334,-1.8 1.05333,-6.5 1.05333,-2.8 1.05334,0.1 1.05333,1.5 1.05334,3 1.05333,9.9 1.05334,-0.7 1.05333,1.2 1.05334,-0.9 1.05333,-2.6 1.05333,0.5 1.05334,-2.5 1.05333,-4.1 1.05334,1.6 1.05333,1.6 1.05334,0.3 1.05333,-1.9 1.05334,-2.4 1.05333,-1 1.05333,-0.1 1.05334,-1.1 1.05333,-2.3 1.05334,-6.2 1.05333,2.4 1.05334,1.4 1.05333,-0.1 1.05334,-1.4 1.05333,1.6 1.05333,2.6 1.05334,6.9 1.05333,-2 1.05334,0.7 1.05333,-1.7 1.05334,0.1 1.05333,-1.3 1.05333,-2.8 1.05334,-5.1 1.05333,-2 1.05334,-4 1.05333,-0.9 1.05334,-3.5 1.05333,-5.3 1.05334,-6.8 1.05333,-3.1 1.05333,-0.5 1.05334,-2.5 1.05333,-2 1.05334,-0.8 1.05333,0.5 1.05334,1.3 1.05333,-0.6 1.05334,-0.7 1.05333,1.7 1.05333,-0.2 1.05334,1.5 1.05333,0.7 1.05334,-4.6 1.05333,0.4 1.05334,0.6 1.05333,-0.6 1.05334,-0.1 1.05333,-0.1 1.05333,0.2 1.05334,6.8 1.05333,1 1.05334,-1.4 1.05333,-0.8 1.05334,0.6 1.05333,2.2 1.05333,-1.2 1.05334,1.2 1.05333,0.2 1.05334,-1.7 1.05333,-2.7 1.05334,-5.3 1.05333,-8.1 1.05334,-3.3 1.05333,-7.7 1.05333,-2.9 1.05334,-1 1.05333,1.6 1.05334,4.5 1.05333,4.9 1.05334,2.9 1.05333,6.7 1.05334,5.9 1.05333,1.9 1.05333,1.6 1.05334,-5.2 1.05333,-4.2 1.05334,-1.4 1.05333,-7.7 1.05334,-5.2 1.05333,-5.1 1.05334,-2.9 1.05333,2.6 1.05333,-0.4 1.05334,1.8 1.05333,14.2 1.05334,9.2 1.05333,6 1.05334,2.8 1.05333,4.7 1.05333,7.1 1.05334,2.9 1.05333,6 1.05334,-0.3 1.05333,-2.1 1.05334,-5.4 1.05333,-6.9 1.05334,-0.9 1.05333,-4.5 1.05333,-18.6 1.05334,-14.3 1.05333,-9.7 1.05334,-3.4 1.05333,-1.8 1.05334,-4.7 1.05333,-4.6 1.05334,-6.4 1.05333,-2.7 1.05333,6.1 1.05334,2.7 1.05333,1.5 1.05334,0.1 1.05333,1.7 1.05334,8.3 1.05333,10.4 1.05334,0.1 1.05333,2 1.05333,-4.8 1.05334,0 1.05333,4.6 1.05334,2.7 1.05333,0.4 1.05334,2.5 1.05333,1.4 1.05333,9.8 1.05334,2.5 1.05333,0 1.05334,-0.7 1.05333,1.4 1.05334,-1.2 1.05333,-1.6 1.05334,-5.6 1.05333,-4.4 1.05333,-4 1.05334,-1.7 1.05333,-10 1.05334,-8.4 1.05333,-1.1 1.05334,-2.9 1.05333,1.8 1.05334,-2.3 1.05333,-0.8 1.05333,4.2 1.05334,5.8 1.05333,-0.3 1.05334,2.6 1.05333,-2.3 1.05334,0 1.05333,-2.2 1.05333,-2.7 1.05334,0.9 1.05333,-0.1 1.05334,-2.4 1.05333,-1.8 1.05334,0 1.05333,1.8 1.05334,2.8 1.05333,-1.6 1.05333,-0.1 1.05334,2.6 1.05333,-1.3 1.05334,0.8 1.05333,-0.4 1.05334,-0.1 1.05333,2.2 1.05334,0.8 1.05333,-0.6 1.05333,3.3 1.05334,0 1.05333,-2 1.05334,-2.5 1.05333,-4.7 1.05334,0.1 1.05333,-3.3 1.05334,3 1.05333,3.6 1.05333,1.6 1.05334,-1.2 1.05333,4.2 1.05334,-1.3 1.05333,1.7 1.05334,-3.6 1.05333,-12.8 1.05333,-6.6 1.05334,1 1.05333,-1.5 1.05334,-2.5 1.05333,0.4 1.05334,-2.4 1.05333,6.9 1.05334,-0.8 1.05333,-3.8 1.05333,-3.4 1.05334,1.8 1.05333,-1.5 1.05334,-0.6 1.05333,0.9 1.05334,5.1 1.05333,4.5 1.05334,1.2 1.05333,1 1.05333,-3.8 1.05334,-0.2 1.05333,-3.1 1.05334,-1.2 1.05333,-3.1 1.05334,-0.2 1.05333,-2.7 1.05334,2.1 1.05333,0.6 1.05333,-1.2 1.05334,-2.5 1.05333,2 1.05334,1.6 1.05333,2.8 1.05334,5.7 1.05333,-0.6 1.05333,1.3 1.05334,0.2 1.05333,-1.2 1.05334,-0.8 1.05333,-1.5 1.05334,-3.3 1.05333,-0.1 1.05334,1.8 1.05333,4.6 1.05333,0.2 1.05334,2.1 1.05333,1.7 1.05334,2 1.05333,3.1 1.05334,0.3 1.05333,0.5 1.05334,2.9 1.05333,0.2 1.05333,-1 1.05334,-3 1.05333,-0.2 1.05334,-0.3 1.05333,-3.8 1.05334,-8.6 1.05333,-14.6 1.05334,-2.9 1.05333,-4 1.05333,-9 1.05334,-5.6 1.05333,-4.5 1.05334,4.3 1.05333,10.3 1.05334,2.6 1.05333,8 1.05333,6.4 1.05334,-2.7 1.05333,-0.5 1.05334,-5.4 1.05333,-3.8 1.05334,-4.1 1.05333,-9.5 1.05334,-2.8 1.05333,-0.2 1.05333,1.1 1.05334,-0.2 1.05333,-0.6 1.05334,3 1.05333,3.5 1.05334,-1.6 1.05333,6.5 1.05334,3 1.05333,3.4 1.05333,2 1.05334,-2.2 1.05333,-1.9 1.05334,-6.9 1.05333,-12 1.05334,-7 1.05333,-7.2 1.05334,-1.7 1.05333,-1.2 1.05333,-10.3 1.05334,-15 1.05333,-13.3 1.05334,-13.3 1.05333,-18.3 1.05334,-13.1 1.05333,-22.1 1.05333,-5.1 1.05334,17.2 1.05333,17.3 1.05334,17.4 1.05333,24.7 1.05334,14 1.05333,20.4 1.05334,20.2 1.05333,-1.2 1.05333,-8.1 1.05334,0.7 1.05333,2.6 1.05334,4.7 1.05333,15 1.05334,0.4 1.05333,2.1 1.05334,3.9 1.05333,-7.6 1.05333,-8 1.05334,-18.4 1.05333,-2.8 1.05334,-2.2 1.05333,-4.7 1.05334,1.8 1.05333,0.4 1.05334,2.7 1.05333,18.5 1.05333,3.5 1.05334,2.6 1.05333,5.3 1.05334,5 1.05333,4.9 1.05334,6 1.05333,-0.6 1.05333,0.6 1.05334,0.9 1.05333,-1.1 1.05334,-2.6 1.05333,0.6 1.05334,-3 1.05333,-0.6 1.05334,-2.5 1.05333,-3.1 1.05333,-1.7 1.05334,-0.9 1.05333,0.2 1.05334,-1.9 1.05333,-2 1.05334,0.5 1.05333,-0.3 1.05334,-5.3 1.05333,-4.1 1.05333,-6.8 1.05334,8.5 1.05333,-7.6 1.05334,-4.4 1.05333,-0.3 1.05334,4.5 1.05333,2.9 1.05334,4.8 1.05333,-22.1 1.05333,-4.8 1.05334,-9.7 1.05333,-12.5 1.05334,-10.6 1.05333,-10.5 1.05334,-28.6 1.05333,-5.2 1.05333,8.1 1.05334,7.8 1.05333,9.5 1.05334,7.2 1.05333,8.8 1.05334,32.3 1.05333,17.5 1.05334,-0.5 1.05333,-0.4 1.05333,-2 1.05334,-0.8 1.05333,-1.9 1.05334,-3.4 1.05333,-1.6 1.05334,-4 1.05333,1.9 1.05334,4.1 1.05333,-0.9 1.05333,0.6 1.05334,-1.2 1.05333,5 1.05334,1.4 1.05333,-1.6 1.05334,-2.9 1.05333,2.7 1.05334,1 1.05333,-5.4 1.05333,-7.3 1.05334,-3.1 1.05333,-4.4 1.05334,-2.7 1.05333,-1.2 1.05334,-6.9 1.05333,2 1.05333,-0.7 1.05334,-0.4 1.05333,-2 1.05334,2.9 1.05333,-1 1.05334,1.8 1.05333,-4.4 1.05334,-5.1 1.05333,-3.8 1.05333,-7.4 1.05334,-8.6 1.05333,-8.9 1.05334,-13.3 1.05333,-5.4 1.05334,-0.1 1.05333,-1.4 1.05334,4.9 1.05333,1.6 1.05333,5.6 1.05334,9.5 1.05333,8.7 1.05334,2.1 1.05333,1.4 1.05334,-0.9 1.05333,0.4 1.05334,-1 1.05333,0.6 1.05333,-0.1 1.05334,0.5 1.05333,-0.7 1.05334,3 1.05333,2.1 1.05334,2.2 1.05333,4.2 1.05333,-2.7 1.05334,-0.4 1.05333,-3.3 1.05334,-1.1 1.05333,-7.5 1.05334,-8.4 1.05333,-6 1.05334,-1.3 1.05333,-1 1.05333,-6.6 1.05334,-11.1 1.05333,-3 1.05334,-1.6 1.05333,-9.7 1.05334,-8.4 1.05333,-10.1 1.05334,-2.1 1.05333,-1.3 1.05333,-6.8 1.05334,-6.6 1.05333,0 1.05334,-1.5 1.05333,-0.6 1.05334,-1 1.05333,-1 1.05333,-0.1 1.05334,0.8 1.05333,0.3 1.05334,-1.4 1.05333,5.5 1.05334,8.7 1.05333,6.7 1.05334,11 1.05333,7.5 1.05333,8.3 1.05334,14 1.05333,14 1.05334,6.8 1.05333,3.8 1.05334,-0.8 1.05333,0 1.05334,1.1 1.05333,-3.4 0.74667,-15.6 10,0"
         isTracker="true"
         visibility="visible"
         style="visibility:visible;fill:none;stroke:#c0c0c0;stroke-width:22;stroke-linejoin:bevel;stroke-opacity:0.00000102"
         id="path9958"
         inkscape:connector-curvature="0" />
    </g>
  </g>
</svg>
