<svg width="210.96" height="98.013" xmlns="http://www.w3.org/2000/svg" fill-opacity=".5"><g transform="translate(-136.654 -342.519)" fill-opacity="1" fill-rule="evenodd"><path d="M148.622 343.804c.538-.09 13.953 6.99 22.97 9.438 16.08 4.11 30.756 16.476 37.85 23.58.526.608 6.093-4.168 11.92-3.824 7.957.482 32.58 7.406 35.87 2.69 1.996-2.767 1.853-6.163 4.342-7.554 1.34-.375-4.98-11.936 1.737-15.64 4.79-2.394 8.85 11.01 10.08 12.51.55.673 3.475.837 3.13-.694-.376-1.663-5.104-14.524.694-16.682 9.417-3.73 7.748 16.456 7.993 17.03.52 1.222 32.797 2.164 34.754 16.682 1.133 7.99-25.857 18.317-28.497 20.157-2.64 1.84-2.42 4.783-1.39 6.604 1.183 1.977 9.046 8.643 7.994 11.818-.723 1.834-15.398-4.888-16.335-3.475-2.136 2.7 10.684 9.455 6.257 14.25-1.756 1.147-21.948-8.455-21.897-8.342-.54.207-28.53 5.114-50.045-1.39-.758-.214-13.808 12.606-15.292 12.165-2.03-.744 2.99-11.15 2.433-13.207-.913-1.146-9.25 4.653-9.73 1.738-.576-3.83 7.316-8.235 6.95-10.774-2.036-14.423.91-22.846 5.907-29.887 1.667-2.592-19.592-18.646-34.983-24.982-15.39-6.335-23.623-11.705-22.708-12.206z" fill="#020202" stroke="#000002" stroke-width="1.333"/><path d="M286.934 392.03c-.17-.59 10.503-7.044 12.048-5.56 2.78 1.008-11.95 6.31-12.048 5.56zm5.096 5.87c-.94-.567 6.39-9.113 8.188-8.186 2.625 2.608-8.31 8.39-8.187 8.187z" fill="#fff" stroke="#000" stroke-width=".8"/><path d="M320.916 358.358c-.89-.737-7.878 10.287-6.333 11.43.93.696 6.73-11.037 6.333-11.43z" fill="#020202" stroke="#000" stroke-width=".8"/><ellipse cx="288.865" cy="374.587" rx="3.012" ry="3.398" transform="matrix(.925 0 0 .934 22.028 24.352)" fill="#fff" stroke="#000" stroke-width=".8"/><path d="M312.884 356.813c-.44-.512-2.78 11.368-1.7 11.894.93.695 2.548-11.276 1.7-11.894z" fill="#020202" stroke="#000" stroke-width=".8"/><path d="M283.06 372.89c-2.772 1.96 1.52 13.046 8.58 6.573-5.547.163-7.397-1.46-8.58-6.572z" fill="#fff" stroke="#000" stroke-width=".8"/></g></svg>