<svg xmlns="http://www.w3.org/2000/svg" xmlns:xlink="http://www.w3.org/1999/xlink" width="760" height="760"><title>XFCE 4 Logo</title><defs><linearGradient id="c"><stop offset="0"/><stop offset="1" stop-opacity="0"/></linearGradient><linearGradient id="d"><stop offset="0" stop-color="#b7b7b7"/><stop offset="1"/></linearGradient><linearGradient id="b"><stop offset="0" stop-color="#fff"/><stop offset=".5" stop-color="#7fd4ee"/><stop offset="1" stop-color="#00aade"/></linearGradient><linearGradient id="a"><stop offset="0" stop-color="#fff"/><stop offset=".499" stop-color="#d5e2ec"/><stop offset="1" stop-color="#d5e2ec"/></linearGradient><linearGradient x1="33.527" y1="441.981" x2="159.241" y2="581.413" id="f" xlink:href="#b" gradientUnits="userSpaceOnUse"/><linearGradient x1="245.517" y1="426.952" x2="305.392" y2="531.49" id="g" xlink:href="#b" gradientUnits="userSpaceOnUse" gradientTransform="translate(-.382 2.677)"/><linearGradient x1="440.521" y1="455.933" x2="486.955" y2="535.305" id="h" xlink:href="#b" gradientUnits="userSpaceOnUse" gradientTransform="translate(-.51 6.118)"/><linearGradient x1="118.252" y1="254.246" x2="291.871" y2="254.246" id="i" xlink:href="#c" gradientUnits="userSpaceOnUse"/><linearGradient x1="174.281" y1="164.167" x2="236.402" y2="253.706" id="l" xlink:href="#d" gradientUnits="userSpaceOnUse" gradientTransform="matrix(3.752 0 0 3.752 -424.922 -686.03)"/><filter color-interpolation-filters="sRGB" id="e"><feGaussianBlur stdDeviation="4.667"/></filter><filter color-interpolation-filters="sRGB" id="k"><feGaussianBlur stdDeviation="1.309"/></filter></defs><g stroke-width="3"><path d="M58.346 417.636l56.432 69.384 56.45-66.665 40.5 40.308-61.78 65.916 65.458 68.014-42.746 42.503-64.15-72.738-60.242 74.29L7.19 597.327l67.518-65.786-61.68-69.086zm186.976 15.124s117.205-1.22 117.205-.743c0 .473-.462 46.742-.462 46.742l-56.15 2.88-.172 36.17 53.92.57.174 44.41-53.062 1.123-.04 75.283-62.112-.883s-.25-205.554.7-205.554zm297.018-1.38c3.79 18.023 7.58 36.047 11.372 54.07-36.273 12.23-88.713 15.006-91.25 68.095 6.673 52.01 70.356 34.37 98.685 36.77.473 17.234.438 33.7.91 50.935-126.765 16.69-161.695-45.13-163.832-67.52-12.5-100.83 88.584-130.205 144.114-142.35z" transform="translate(26.6 37.252)" opacity=".8" filter="url(#e)" stroke="#000"/><g stroke="#00aade"><path d="M58.346 417.636l56.432 69.384 56.45-66.665 40.5 40.308-61.78 65.916 65.458 68.014-42.746 42.503-64.15-72.738-60.242 74.29L7.19 597.327l67.518-65.786-61.68-69.086z" fill="url(#f)" transform="translate(20.6 32.752)"/><path d="M245.322 432.76s117.205-1.22 117.205-.743c0 .473-.462 46.742-.462 46.742l-56.15 2.88-.172 36.17 53.92.57.174 44.41-53.062 1.123-.04 75.283-62.112-.883s-.25-205.554.7-205.554z" fill="url(#g)" transform="translate(20.6 32.752)"/><path d="M542.34 431.38c3.79 18.023 7.58 36.047 11.372 54.07-36.273 12.23-88.713 15.006-91.25 68.095 6.673 52.01 70.356 34.37 98.685 36.77.473 17.234.438 33.7.91 50.935-126.765 16.69-161.695-45.13-163.832-67.52-12.5-100.83 88.584-130.205 144.114-142.35z" fill="url(#h)" transform="translate(20.6 32.752)"/></g></g><g transform="matrix(3.752 0 0 3.752 -424.922 -686.03)" fill="url(#i)" stroke="#000" stroke-width=".268"><use transform="translate(1.865 1.199)" width="760" height="760" xlink:href="#j" opacity=".8" filter="url(#k)"/><path d="M118.946 209.57c-.915.5 7.297 5.882 22.687 12.218s36.667 22.377 35 24.97c-5 7.04-7.94 15.48-5.906 29.905.367 2.54-7.543 6.95-6.97 10.78.48 2.916 8.84-2.895 9.75-1.75.56 2.058-4.465 12.476-2.436 13.22 1.486.44 14.525-12.4 15.283-12.187 21.514 6.504 49.52 1.612 50.062 1.406-.05-.113 20.12 9.492 21.875 8.344 4.426-4.794-8.388-11.55-6.25-14.25.936-1.413 15.62 5.302 16.343 3.468 1.052-3.175-6.817-9.837-8-11.812-1.03-1.82-1.233-4.754 1.406-6.594 2.64-1.84 29.63-12.166 28.5-20.156-1.96-14.518-34.26-15.466-34.783-16.688-.245-.574 1.448-20.76-7.97-17.03-5.797 2.157-1.092 15.024-.717 16.687.347 1.533-2.573 1.36-3.124.69-1.23-1.503-5.273-14.926-10.063-12.53-6.718 3.702-.41 15.28-1.75 15.654-2.49 1.39-2.35 4.795-4.344 7.563-3.29 4.715-27.92-2.206-35.877-2.688-5.826-.345-11.38 4.42-11.906 3.812-7.094-7.103-21.765-19.484-37.844-23.593-9.017-2.448-22.43-9.53-22.968-9.44zm164.218 13c-.537.23-2.704 11.396-1.656 11.906.93.695 2.536-11.257 1.688-11.875-.014-.014-.014-.037-.032-.03zm7.97 1.53c-1.22-.022-7.716 10.36-6.22 11.47.93.694 6.71-11.045 6.313-11.438-.028-.023-.055-.03-.094-.03zm-31.5 12.657c1.538 0 2.78 1.404 2.78 3.156 0 1.753-1.242 3.188-2.78 3.188-1.54 0-2.782-1.433-2.782-3.186 0-1.752 1.242-3.156 2.78-3.156zm-6.25 1.906c1.183 5.11 3.016 6.726 8.562 6.563-7.06 6.473-11.334-4.604-8.563-6.563zm14.937 13.375c.44-.035.777.034.97.22 2.78 1.007-11.933 6.31-12.03 5.56-.15-.515 7.986-5.53 11.062-5.78zm1.814 3.375c.152-.012.294.036.406.094 2.624 2.608-8.31 8.39-8.188 8.187-.88-.532 5.498-8.104 7.78-8.28z" id="j" fill="#000" fill-rule="evenodd"/><path d="M21.406 100.375c-3.433 1.88 27.406 22.068 85.156 45.844 57.755 23.774 137.6 83.99 131.344 93.717-18.758 26.42-29.824 58.092-22.187 112.218 1.375 9.528-28.28 26.062-26.127 40.438 1.62 9.847 27.167-6.836 34.75-7.125-12.75-97.07 156.376-151.98 300.03-174.345.423-.62.943-1.146 1.532-1.563.104.447.207.85.313 1.282 4.64-.715 9.264-1.416 13.842-2.063 1.737-3.797 5.243-6.375 9.282-6.375 3.182 0 6.025 1.59 7.937 4.125 23.875-2.994 46.506-5.064 66.844-6.218-37.955-16.115-88.987-18.63-90.25-21.593-.92-2.156 5.43-77.9-29.906-63.908-21.758 8.097-4.096 56.353-2.69 62.593 1.3 5.745-9.68 5.116-11.75 2.594-4.614-5.637-19.774-56.016-37.75-47.03-25.208 13.897-1.533 57.34-6.56 58.75-9.34 5.217-8.828 17.986-16.314 28.373-12.345 17.693-104.762-8.254-134.625-10.063-21.86-1.29-42.68 16.564-44.656 14.282-26.62-26.657-81.664-73.112-142-88.53-33.836-9.183-84.2-35.745-86.22-35.407z" transform="matrix(.266 0 0 .266 113.237 182.82)" fill="url(#l)"/></g></svg>